<svg width="53" height="40" viewBox="0 0 53 40" fill="none" xmlns="http://www.w3.org/2000/svg">
<g clip-path="url(#clip0_18297_87410)">
<path d="M52.9278 10.6476H50.1722V10.7854H52.9278V10.6476Z" fill="#035562"/>
<path d="M15.124 40C14.9008 40 14.6886 39.9504 14.493 39.854L14.4792 39.8471C14.3511 39.7823 14.2243 39.7162 14.0976 39.65C13.9639 39.5798 13.8289 39.5109 13.6939 39.442C13.6139 39.402 13.534 39.3607 13.4541 39.3194C13.2433 39.2119 13.0449 39.1099 12.852 39.0245C12.571 38.9005 12.2678 38.7889 11.9799 38.6842C11.8104 38.6222 11.623 38.5671 11.4315 38.512C11.2786 38.4665 11.127 38.4224 10.9769 38.3783C10.4919 38.235 10.0344 38.1 9.57013 37.9774C9.30284 37.9085 9.01351 37.8534 8.70626 37.7955C8.59879 37.7749 8.49132 37.7556 8.38523 37.7349C8.21439 37.7018 8.04079 37.6729 7.86856 37.644L7.62194 37.6026L6.52108 37.4139L6.47837 36.2979L6.44255 35.4106C6.43979 35.2384 6.43842 35.0648 6.43704 34.8912C6.43428 34.504 6.43153 34.1389 6.40948 33.7834C6.40259 33.6801 6.3709 33.5327 6.33784 33.3742C6.30753 33.2295 6.2717 33.0642 6.24553 32.8865C6.1849 32.4773 6.03197 32.0502 5.77983 31.5845C5.51805 31.0981 5.27832 30.8157 4.99725 30.6668C4.58116 30.445 4.19262 30.3376 3.80959 30.3376C3.76275 30.3376 3.7159 30.3389 3.67044 30.3417L3.6539 30.3444C3.57812 30.3555 3.45275 30.3761 3.29843 30.3761C3.25434 30.3761 3.21025 30.3748 3.16754 30.372C2.40563 30.3155 1.78562 29.6514 1.78562 28.8895C1.78838 28.563 1.80215 28.2543 1.82282 27.9595C1.83384 27.7955 1.85175 27.6398 1.86829 27.5034C1.87655 27.4304 1.8862 27.3588 1.89309 27.2858C1.92615 26.9523 1.95784 26.6189 1.98678 26.2882C2.00193 26.1243 2.01158 25.9975 2.01709 25.879C2.02673 25.6958 2.03362 25.5194 2.04189 25.3444C2.05704 25.0152 2.07082 24.6859 2.09149 24.3579C2.11904 23.9019 2.15762 23.4472 2.19482 23.0077C1.82558 22.7694 1.45219 22.5296 1.08432 22.2968C0.462941 21.9069 0.20805 21.2249 0.422985 20.5167C0.479475 20.3334 0.527697 20.1392 0.578676 19.9325C0.618631 19.774 0.65721 19.6142 0.701299 19.4558C0.741255 19.3083 0.786722 19.1761 0.828056 19.059C0.855611 18.9777 0.883167 18.9005 0.899701 18.8385C0.953434 18.6498 1.00166 18.4651 1.04988 18.2791C1.10361 18.078 1.15597 17.8754 1.21246 17.6757C1.25241 17.5338 1.2965 17.4098 1.33508 17.2995C1.36815 17.2072 1.41224 17.0791 1.41913 17.0336C1.42188 16.9964 1.40811 16.8903 1.37917 16.725C1.34335 16.5225 1.27308 16.3048 1.21521 16.1381C1.0733 15.7261 0.914856 15.3086 0.764677 14.9173C0.697165 14.7396 0.617254 14.5564 0.52632 14.3703C0.515297 14.3511 0.496008 14.3235 0.478097 14.2959C0.431252 14.2229 0.372007 14.1306 0.312762 14.0204C-0.0551079 13.3398 -0.104708 12.582 0.176361 11.8889C0.378896 11.3833 0.610365 10.9025 0.834944 10.4368L0.912101 10.2769C1.10775 9.87186 1.29237 9.51777 1.47975 9.19124C1.70433 8.79857 1.94958 8.38247 2.22927 7.97189C2.45798 7.63571 2.69496 7.31055 2.92367 6.99642C3.03252 6.84762 3.13999 6.69881 3.24745 6.55001L3.24057 6.48388L3.42932 6.25792L3.5175 6.11325L3.65666 5.98374L3.75448 5.86525L3.83302 5.77983L3.84679 5.76467C3.87573 5.73436 3.90604 5.70543 3.93635 5.67512C3.95013 5.66134 3.96391 5.64756 3.97768 5.63378C4.08653 5.51667 4.20226 5.39129 4.318 5.26591C4.5784 4.98347 4.84845 4.69137 5.12538 4.40479C5.30725 4.21741 5.4905 4.05897 5.65308 3.91843C5.71645 3.86332 5.77845 3.80959 5.84046 3.7531L5.97272 3.63737C6.10224 3.52439 6.23037 3.41141 6.36402 3.30256L6.49077 3.19647C6.68366 3.03389 6.90135 2.85065 7.14384 2.6798C7.469 2.45247 7.82309 2.22513 8.26537 1.95646C8.39763 1.87655 8.52715 1.82282 8.64564 1.78562C8.74208 1.70157 8.84955 1.62993 8.96528 1.57206C9.12924 1.48939 9.2932 1.40948 9.45853 1.33095L9.65418 1.23726H9.6528L9.77956 1.16837L9.8016 1.15734L9.82365 1.13392L10.0854 1.02645L10.2949 0.942408L10.4698 0.861119L10.6586 0.819785C10.7716 0.78534 10.8777 0.753651 10.9851 0.720584C11.1821 0.659961 11.3778 0.600716 11.5748 0.542849C11.798 0.478093 12.0198 0.41747 12.2403 0.35547L12.5696 0.264536L12.7528 0.242491C13.2681 0.181868 13.7834 0.119868 14.2987 0.0578672C14.3166 0.052356 14.3332 0.0482226 14.3497 0.0440893L14.5164 0.00137779H14.6886C15.2397 0 15.7909 0 16.342 0H16.3971L16.4508 0.00413337C16.5514 0.0124001 16.6534 0.0192891 16.7539 0.026178C16.9909 0.0427115 17.2348 0.059245 17.4883 0.0881786C17.7253 0.115734 17.9443 0.151557 18.1565 0.186002C18.2502 0.201157 18.3425 0.216313 18.4362 0.231469L18.4955 0.241113L18.6319 0.27418C18.7834 0.311381 18.935 0.347203 19.0879 0.383026L19.3166 0.434004C19.5412 0.484982 19.7658 0.534582 19.9876 0.588316C20.1323 0.622761 20.2838 0.662717 20.4368 0.704051L20.6214 0.753651L20.6669 0.768807C20.8294 0.823918 20.9906 0.87903 21.1532 0.932764C21.561 1.06916 21.9813 1.21108 22.4015 1.36815C22.79 1.51281 23.1634 1.67401 23.5244 1.8297L23.76 1.93166C23.9832 2.02673 24.205 2.12869 24.4282 2.22926L24.701 2.35327L24.7616 2.38909C24.7947 2.40838 24.8264 2.42904 24.8595 2.44971C25.011 2.51722 25.1516 2.58887 25.2769 2.65225C25.4795 2.75558 25.671 2.8534 25.7964 2.87545L25.9686 2.90714L26.127 2.98016C26.5886 3.19372 27.1259 3.32736 27.695 3.46928L27.8617 3.51061C28.1992 3.59465 28.596 3.61119 29.0176 3.63048L29.1871 3.63737C29.2367 3.64012 29.2863 3.64012 29.3359 3.64012C29.4902 3.64012 29.6569 3.63185 29.8347 3.62221C29.938 3.6167 30.0413 3.61119 30.146 3.60705C30.2094 3.6043 30.2742 3.60292 30.3389 3.60154C30.4257 3.60017 30.5456 3.59741 30.5856 3.59052C30.7716 3.5547 30.9465 3.53403 31.1009 3.51612C31.2855 3.49408 31.4591 3.47341 31.5528 3.43759C31.86 3.31634 32.1535 3.27225 32.367 3.24056C32.4511 3.22816 32.5393 3.21438 32.5834 3.20336C32.9443 3.10829 33.3012 2.99807 33.6787 2.88371L34.1003 2.75558C34.3566 2.67842 34.5991 2.6054 34.8181 2.52136C35.0124 2.44695 35.2012 2.40975 35.3941 2.40975C35.795 2.40975 36.178 2.57785 36.4467 2.86994C36.6409 3.08212 36.8628 3.45412 36.8146 4.01901L36.8049 4.16781C36.7898 4.42408 36.7732 4.68862 36.7415 4.96418C36.7333 5.03582 36.7264 5.0992 36.7195 5.16396C36.6878 5.46707 36.652 5.81152 36.55 6.17663C36.3406 6.911 36.0981 7.6178 35.9093 8.15101C35.7771 8.52301 35.609 8.89226 35.4065 9.25048C35.2893 9.45853 35.1681 9.66795 35.0427 9.87875C35.3941 10.0276 35.7564 10.1764 36.116 10.3155C36.4164 10.4312 36.736 10.5415 37.097 10.6545C37.458 10.7674 37.8245 10.8694 38.1703 10.9631C38.4927 11.0485 38.8137 11.1325 39.1292 11.2014C39.3332 11.2455 39.5536 11.28 39.7878 11.3158L39.9449 11.3406C40.0345 11.3544 40.124 11.3654 40.2122 11.3764C40.3004 11.3874 40.3885 11.3985 40.4767 11.4109C40.5938 11.4274 40.7027 11.4467 40.8129 11.466C40.9782 11.4949 41.1325 11.5225 41.2552 11.5293C41.6602 11.5528 42.0667 11.5652 42.4952 11.5776C42.6619 11.5817 42.8286 11.5872 42.9953 11.5927C43.067 11.59 43.1372 11.5886 43.2089 11.5872C43.3756 11.5831 43.534 11.5789 43.6718 11.5679C44.11 11.5307 44.5109 11.488 44.9008 11.4384C44.9242 11.4315 44.9724 11.4164 45.0083 11.4053C45.073 11.3847 45.1392 11.364 45.2039 11.3461L45.2494 11.3337L45.434 11.2951C45.5332 11.2745 45.6338 11.2552 45.733 11.2317L45.97 11.1766C46.2221 11.1174 46.4618 11.0623 46.6933 11.0003C46.7167 10.9906 46.7388 10.981 46.7608 10.9713C46.8297 10.941 46.9151 10.9025 47.0171 10.8653C47.1494 10.817 47.2816 10.7729 47.4125 10.7275C47.6274 10.6545 47.83 10.5856 48.0132 10.5098C48.3411 10.3761 48.6594 10.2177 48.9295 10.0813C49.0989 9.99587 49.278 9.88978 49.4806 9.75751C49.6308 9.65831 49.7823 9.5536 49.9325 9.44888C50.1268 9.31386 50.3279 9.1747 50.5401 9.0383C50.9245 8.7903 51.302 8.7903 51.4453 8.7903L52.9251 8.6291L52.7267 11.8531C52.6894 12.1053 52.6357 12.3643 52.5668 12.633C52.4511 13.0821 52.2995 13.4941 52.1549 13.8923L52.1425 13.9267C52.0088 14.2959 51.8779 14.5963 51.7319 14.8691C51.5321 15.2466 51.3075 15.6338 51.0471 16.0513C50.8515 16.3613 50.6365 16.6892 50.3679 17.0074C50.0303 17.4042 49.6707 17.8217 49.2684 18.2199C49.3331 18.2199 49.391 18.2268 49.4379 18.2323L50.9961 18.3274L50.66 19.8388C50.6214 20.113 50.5153 20.3541 50.3444 20.5608L50.3293 20.5787C50.2191 20.7068 50.1061 20.8639 49.9862 21.0306C49.7382 21.375 49.4585 21.7649 49.0535 22.119C48.9708 22.1907 48.8743 22.2968 48.7724 22.407C48.6759 22.5117 48.5657 22.6316 48.4417 22.7514C48.1359 23.0477 47.7776 23.3921 47.4001 23.72C47.2045 23.8909 47.0088 24.0025 46.8669 24.0838C46.8407 24.0989 46.8132 24.1141 46.787 24.1292C46.477 24.482 46.0926 24.7768 45.6173 25.022C45.5952 25.0386 45.5539 25.0716 45.5222 25.0978C45.4216 25.1791 45.2962 25.2811 45.1364 25.3803C44.8939 25.5304 44.6569 25.6627 44.4268 25.7895C44.3345 25.8405 44.2422 25.8928 44.1499 25.9452C44.0714 25.9893 43.9928 26.0361 43.9143 26.0816C43.7076 26.2028 43.4941 26.3268 43.2612 26.4453C43.0752 26.5404 42.8989 26.612 42.7418 26.674C42.7074 26.6878 42.6729 26.7016 42.6385 26.7153C42.5586 26.7732 42.4525 26.8421 42.3161 26.9C41.984 27.0446 41.6327 27.1989 41.2634 27.3395C40.6793 27.5586 40.1598 27.7432 39.6693 27.9071C38.8826 28.1717 37.9443 28.4665 36.9606 28.6443C36.714 28.6897 36.4646 28.7421 36.2001 28.7986C35.9548 28.8509 35.7096 28.9019 35.4629 28.9487C34.836 29.0672 34.2574 29.1692 33.6966 29.2587C33.4266 29.3028 33.1675 29.3194 32.9388 29.3331L32.7969 29.3428C32.5241 29.3621 32.2499 29.38 31.9758 29.3965C31.7016 29.4144 31.4274 29.431 31.1532 29.4516C30.7702 29.4792 30.3637 29.5081 29.9628 29.5481C29.792 29.5646 29.6225 29.5784 29.4516 29.5908C29.1347 29.6142 28.8358 29.6363 28.5726 29.69C28.2406 29.7589 27.9209 29.8002 27.6109 29.8416C27.356 29.8746 27.1163 29.9063 26.8917 29.9504C26.3957 30.0468 25.9066 30.1667 25.4368 30.3059C24.7355 30.5167 24.1678 30.7096 23.6539 30.9121C23.1965 31.0926 22.717 31.3158 22.1921 31.5941C21.7677 31.8187 21.3282 32.0832 20.8859 32.3808C20.3169 32.7625 19.8898 33.1055 19.5453 33.4624C19.442 33.5699 19.3359 33.6773 19.2298 33.7848C18.9446 34.0755 18.6746 34.3511 18.4211 34.6349C18.3646 34.6969 18.2874 34.8209 18.213 34.9394C18.1675 35.0124 18.1221 35.084 18.0739 35.1557L17.9306 35.3692C17.7666 35.6145 17.6109 35.8473 17.4731 36.0774C17.4414 36.1325 17.3974 36.2331 17.3491 36.3406C17.3009 36.4508 17.2513 36.561 17.199 36.6685C17.148 36.7705 17.0942 36.8559 17.0488 36.922C16.9978 37.0942 16.9454 37.272 16.8945 37.4483L16.8201 37.6977C16.7567 37.9085 16.6974 38.1069 16.6478 38.3012C16.6244 38.3935 16.6024 38.5023 16.579 38.6181C16.561 38.7104 16.5417 38.8013 16.5225 38.8936C16.3861 39.5398 15.8088 40 15.1199 40H15.124Z" fill="#FCFDFD"/>
<path d="M51.55 10.1667V10.5787C51.444 10.5883 51.4095 10.6503 51.415 10.7509C51.4426 11.2745 51.364 11.7884 51.2345 12.2927C51.1326 12.6867 50.9907 13.0711 50.8501 13.4555C50.7551 13.7173 50.649 13.9777 50.5181 14.2229C50.3197 14.5977 50.1047 14.9642 49.8802 15.3238C49.7066 15.5994 49.5261 15.8722 49.3166 16.1202C48.9639 16.5349 48.6057 16.9482 48.2144 17.3271C47.8314 17.6977 47.4222 18.0491 46.9909 18.3618C46.4605 18.7462 45.897 19.0852 45.3431 19.4365C45.1516 19.5577 44.9449 19.6569 44.7493 19.7699C44.657 19.8237 44.6404 19.8939 44.7506 19.9435C44.8664 19.9959 44.9863 20.0689 45.1075 20.0758C45.5897 20.1006 46.0747 20.1116 46.5583 20.1116C46.7705 20.113 46.9854 20.0896 47.1949 20.051C47.5696 19.9807 47.9402 19.8925 48.3122 19.8099C48.6195 19.741 48.9267 19.6693 49.2354 19.6005C49.256 19.5963 49.2794 19.6046 49.3015 19.606C49.296 19.6308 49.3001 19.6638 49.2863 19.6804C48.8937 20.1364 48.6085 20.6793 48.1483 21.0816C47.9099 21.2896 47.7115 21.5418 47.4842 21.7622C47.1618 22.075 46.8366 22.3863 46.4977 22.6812C46.3503 22.8093 46.1643 22.8906 45.9989 22.9995C45.9287 23.0449 45.857 23.0973 45.8033 23.162C45.5732 23.4417 45.2894 23.6443 44.9656 23.8096C44.7658 23.9129 44.6046 24.0907 44.4117 24.2105C44.1045 24.4007 43.7848 24.5701 43.4721 24.7479C43.1937 24.9063 42.9209 25.0744 42.6371 25.2191C42.4194 25.3307 42.1852 25.4078 41.9606 25.5084C41.8931 25.5387 41.8421 25.6062 41.7746 25.6352C41.444 25.7798 41.1133 25.9245 40.7757 26.0526C40.2646 26.2442 39.752 26.4288 39.234 26.6024C38.4087 26.8793 37.5765 27.1342 36.7168 27.2899C36.2125 27.3822 35.7123 27.5007 35.2095 27.5958C34.6349 27.7046 34.059 27.8066 33.4817 27.8989C33.2254 27.9402 32.9637 27.9512 32.7046 27.9692C32.1563 28.0077 31.6079 28.0394 31.0595 28.078C30.649 28.1069 30.2384 28.1372 29.8278 28.1786C29.3194 28.2296 28.8082 28.2378 28.3012 28.3412C27.7515 28.4541 27.1852 28.4913 26.6327 28.5988C26.0981 28.7021 25.5663 28.8316 25.0455 28.9873C24.4076 29.1789 23.7724 29.3869 23.1524 29.6308C22.6054 29.8471 22.0708 30.102 21.5514 30.3762C21.0595 30.6366 20.5815 30.9273 20.1199 31.2373C19.5633 31.6107 19.0287 32.0185 18.5589 32.5021C18.1689 32.9044 17.7694 33.2984 17.396 33.7159C17.2141 33.9185 17.0791 34.1651 16.9276 34.3938C16.7126 34.7176 16.4908 35.0386 16.2924 35.372C16.1656 35.5883 16.0802 35.8294 15.9686 36.054C15.9231 36.145 15.8515 36.2235 15.7978 36.3117C15.7771 36.3475 15.7716 36.393 15.7592 36.4343C15.6972 36.6451 15.6352 36.8559 15.5746 37.0667C15.4878 37.3629 15.3955 37.6578 15.3183 37.9568C15.2632 38.1703 15.2274 38.3908 15.1791 38.6057C15.1778 38.6153 15.1227 38.6277 15.1034 38.6181C14.8402 38.4844 14.5798 38.3453 14.3153 38.2116C14.0149 38.0601 13.7187 37.9003 13.4101 37.7639C13.0973 37.6261 12.7749 37.5062 12.4525 37.3891C12.2444 37.3133 12.0309 37.2499 11.8173 37.1879C11.1863 37.0033 10.5567 36.8104 9.9215 36.6437C9.50265 36.5349 9.07415 36.4646 8.6498 36.3819C8.38664 36.331 8.12072 36.2896 7.85619 36.2442C7.84517 35.9576 7.83277 35.671 7.82174 35.3858C7.8121 34.8223 7.82174 34.2574 7.78592 33.6952C7.76388 33.3563 7.66054 33.0243 7.61094 32.6867C7.51725 32.0598 7.29129 31.4784 6.99369 30.9286C6.67129 30.3279 6.26484 29.7796 5.64621 29.4503C4.9959 29.1045 4.30011 28.9129 3.55197 28.9694C3.45691 28.9763 3.36184 29.0039 3.26815 28.997C3.22957 28.9942 3.16344 28.9253 3.16344 28.8881C3.16619 28.6098 3.17721 28.3315 3.19788 28.0546C3.21166 27.8424 3.24473 27.6302 3.26539 27.418C3.29846 27.0819 3.33015 26.7457 3.36046 26.4109C3.37562 26.2524 3.38802 26.0954 3.3949 25.9383C3.4197 25.4382 3.43762 24.9394 3.46793 24.4406C3.49548 23.9956 3.53268 23.5506 3.56988 23.1056C3.58642 22.9154 3.60708 22.7239 3.64015 22.5365C3.67184 22.3547 3.56988 22.2541 3.43899 22.17C2.90028 21.8215 2.36156 21.4729 1.82009 21.1312C1.72778 21.0733 1.70573 21.0361 1.74156 20.919C1.85316 20.558 1.93031 20.1874 2.03089 19.8223C2.08738 19.6156 2.17005 19.4172 2.22792 19.2105C2.33676 18.8261 2.43183 18.4362 2.54067 18.0518C2.61921 17.7763 2.74597 17.509 2.78592 17.2293C2.82037 16.9854 2.78179 16.7264 2.7377 16.4811C2.68948 16.2125 2.60956 15.9493 2.52139 15.6917C2.37534 15.2659 2.21552 14.8443 2.05431 14.4241C1.96889 14.2009 1.87245 13.9818 1.76773 13.7669C1.70022 13.6291 1.60378 13.5065 1.53075 13.3701C1.36404 13.0615 1.32822 12.7225 1.45635 12.4056C1.66578 11.8848 1.91378 11.3792 2.15627 10.8735C2.32023 10.5346 2.49245 10.1998 2.67845 9.87326C2.89752 9.49161 3.1221 9.11134 3.3701 8.74623C3.70215 8.25711 4.059 7.78591 4.40345 7.30368C4.47371 7.20586 4.53158 7.09701 4.59496 6.99368C4.61425 6.97577 4.63492 6.95923 4.6542 6.94132C4.66798 6.93995 4.67349 6.93306 4.67212 6.91928C4.71345 6.86968 4.75478 6.8187 4.79749 6.76772C4.80989 6.75394 4.82367 6.74017 4.83745 6.72501C4.8843 6.67679 4.9339 6.63132 4.98074 6.58172C5.35963 6.17527 5.73164 5.76331 6.11742 5.36513C6.31995 5.15709 6.54729 4.97522 6.7636 4.78095C6.92205 4.64317 7.07912 4.50264 7.24169 4.36899C7.47179 4.17748 7.69774 3.97907 7.94161 3.80685C8.27917 3.57125 8.62913 3.3508 8.98184 3.13725C9.06864 3.08489 9.18576 3.07662 9.29047 3.06422C9.3938 3.05182 9.47785 3.03804 9.50127 2.91404C9.50954 2.87409 9.54674 2.82449 9.58394 2.80658C9.80714 2.6936 10.0331 2.58751 10.2577 2.47866C10.3073 2.45524 10.3555 2.42631 10.4037 2.40013C10.4712 2.36844 10.5387 2.33813 10.6049 2.30782L10.6076 2.30506C10.6889 2.27199 10.7688 2.2403 10.8501 2.20724C10.8735 2.19621 10.897 2.18519 10.9204 2.17417C10.9576 2.1659 10.9962 2.15901 11.032 2.14799C11.3434 2.0543 11.6534 1.95648 11.9648 1.86555C12.2555 1.7815 12.5489 1.70159 12.841 1.6203C13.4114 1.55279 13.9818 1.48528 14.5522 1.41639C14.6005 1.41087 14.6487 1.39159 14.6969 1.37919C15.2467 1.37781 15.7964 1.37781 16.3461 1.37781C16.6768 1.40399 17.0088 1.42052 17.3381 1.45772C17.6385 1.49216 17.9347 1.54865 18.2323 1.59412C18.4142 1.63821 18.5947 1.6823 18.7766 1.72501C19.0742 1.79252 19.3718 1.85728 19.6666 1.92892C19.854 1.97301 20.0386 2.02537 20.2246 2.07497C20.7923 2.26924 21.3627 2.45248 21.9234 2.66191C22.3616 2.82449 22.7901 3.016 23.2199 3.20062C23.5065 3.32325 23.789 3.45414 24.0728 3.58227C24.132 3.61672 24.1871 3.66081 24.2505 3.68698C24.6818 3.87299 25.0772 4.14579 25.5498 4.23259C26.1822 4.52606 26.8573 4.68175 27.5297 4.84984C28.0573 4.98073 28.5919 4.99175 29.1251 5.01655C29.482 5.03308 29.8416 5.0014 30.1998 4.98762C30.4147 4.97935 30.6352 4.98762 30.8446 4.94766C31.2483 4.87051 31.663 4.87877 32.0584 4.72308C32.334 4.61424 32.6509 4.61561 32.9402 4.53846C33.4183 4.4117 33.8895 4.2629 34.3621 4.11961C34.6804 4.02316 35.0014 3.93085 35.3114 3.81236C35.4657 3.75312 35.4478 3.83303 35.4409 3.92121C35.4216 4.22019 35.4065 4.51917 35.3734 4.81677C35.3348 5.1502 35.3142 5.49051 35.2246 5.81016C35.0441 6.44532 34.8319 7.07359 34.6115 7.69635C34.504 7.99947 34.3662 8.29707 34.2078 8.57814C33.8771 9.16232 33.5299 9.73824 33.1717 10.3073C33.0918 10.4326 33.1235 10.4685 33.2254 10.5208C33.4197 10.62 33.614 10.7192 33.8082 10.8198C33.9653 10.8997 34.1182 10.9893 34.2808 11.0568C34.7258 11.2455 35.1723 11.4329 35.6242 11.6065C35.9741 11.7415 36.331 11.8628 36.6892 11.9744C37.0612 12.0915 37.436 12.1948 37.8121 12.2968C38.1538 12.3877 38.4955 12.4773 38.8413 12.5517C39.1348 12.6151 39.4351 12.6578 39.7327 12.7046C39.916 12.7336 40.1006 12.7515 40.2839 12.7776C40.5815 12.8217 40.8763 12.8906 41.1753 12.9085C41.7829 12.9444 42.3905 12.954 42.9981 12.9747C43.264 12.965 43.5313 12.9664 43.7958 12.943C44.2326 12.9058 44.6694 12.8603 45.1047 12.8038C45.2659 12.7818 45.4216 12.7184 45.5787 12.6743C45.7371 12.6412 45.8956 12.6109 46.0527 12.5737C46.393 12.4938 46.736 12.418 47.0736 12.3271C47.2169 12.2885 47.3492 12.2127 47.4897 12.1618C47.8397 12.035 48.1965 11.9262 48.541 11.7843C48.8854 11.6437 49.223 11.4798 49.5564 11.3103C49.7906 11.1918 50.0179 11.0554 50.237 10.9121C50.5911 10.6793 50.9328 10.4285 51.2896 10.1984C51.3558 10.1557 51.4619 10.1764 51.55 10.1667Z" fill="#FCFDFD"/>
<path d="M10.8501 2.20724C10.8735 2.19621 10.8969 2.18519 10.9203 2.17417C10.9575 2.1659 10.9961 2.15901 11.0333 2.14799C11.3447 2.0543 11.6533 1.95648 11.9661 1.86555C12.2568 1.78012 12.5503 1.70159 12.8424 1.6203C13.4128 1.55279 13.9832 1.48528 14.5522 1.41639C14.6018 1.41087 14.6486 1.39159 14.6982 1.37781C15.248 1.37781 15.7977 1.37781 16.3475 1.37781C16.6781 1.40399 17.0102 1.42052 17.3408 1.45772C17.6398 1.49216 17.9374 1.54865 18.235 1.59412C18.4169 1.63683 18.5974 1.6823 18.7793 1.72363C19.0755 1.79252 19.3731 1.85728 19.6693 1.92755C19.8567 1.97164 20.0413 2.02399 20.2273 2.07359C20.7936 2.26786 21.364 2.45248 21.9248 2.66053C22.3629 2.82311 22.7914 3.016 23.2226 3.19925C23.5092 3.32187 23.7903 3.45276 24.0755 3.57952C24.1347 3.61534 24.1898 3.65805 24.2532 3.68561C24.6845 3.87023 25.0799 4.14441 25.5525 4.23121C26.1849 4.52606 26.86 4.68037 27.5324 4.84846C28.0587 4.97935 28.5946 4.99037 29.1278 5.01517C29.4847 5.03171 29.8443 5.00002 30.2011 4.98624C30.4161 4.97797 30.6365 4.98624 30.8459 4.94628C31.2496 4.86913 31.6643 4.87739 32.0598 4.7217C32.3353 4.61286 32.6508 4.61424 32.9416 4.53708C33.4183 4.41032 33.8909 4.2629 34.3634 4.11823C34.6817 4.02179 35.0014 3.92947 35.3114 3.81098C35.467 3.75174 35.4478 3.83165 35.4422 3.92121C35.4216 4.22019 35.4078 4.51917 35.3734 4.81677C35.3362 5.1502 35.3155 5.49051 35.2246 5.81016C35.0441 6.44532 34.8319 7.07359 34.6114 7.69635C34.504 7.99947 34.3662 8.29707 34.2077 8.57814C33.8771 9.16232 33.5299 9.73824 33.1716 10.3073C33.0917 10.434 33.1234 10.4698 33.2254 10.5208C33.4197 10.62 33.6139 10.7206 33.8082 10.8198C33.9653 10.8997 34.1182 10.9893 34.2808 11.0582C34.7258 11.2469 35.1722 11.4343 35.6241 11.6079C35.9755 11.7429 36.3309 11.8642 36.6891 11.9758C37.0612 12.0929 37.4359 12.1962 37.812 12.2982C38.1524 12.3905 38.4954 12.4787 38.8399 12.5531C39.1347 12.6164 39.4337 12.6592 39.7313 12.706C39.9146 12.7349 40.0992 12.7528 40.2824 12.779C40.58 12.8217 40.8763 12.892 41.1752 12.9099C41.7815 12.9457 42.3904 12.9554 42.998 12.976C43.264 12.9664 43.5312 12.9678 43.7958 12.9457C44.2325 12.9085 44.6693 12.8631 45.1033 12.8052C45.2645 12.7845 45.4202 12.7198 45.5786 12.6757C45.7371 12.6426 45.8955 12.6123 46.0512 12.5765C46.3929 12.4966 46.7346 12.4208 47.0722 12.3299C47.2155 12.2913 47.3477 12.2155 47.4883 12.1645C47.8382 12.0378 48.1951 11.9289 48.5381 11.787C48.884 11.6451 49.2215 11.4811 49.555 11.3131C49.7892 11.1946 50.0165 11.0582 50.2356 10.9149C50.5897 10.682 50.9314 10.4313 51.2868 10.2026C51.353 10.1598 51.4604 10.1805 51.5486 10.1709V10.5828C51.4425 10.5925 51.4081 10.6545 51.4136 10.755C51.4411 11.2786 51.3626 11.7939 51.2331 12.2968C51.1311 12.6908 50.9892 13.0766 50.8487 13.4596C50.7536 13.7214 50.6475 13.9818 50.5166 14.2271C50.3182 14.6018 50.1033 14.9683 49.8774 15.3279C49.7051 15.6035 49.5233 15.8763 49.3138 16.1243C48.9611 16.5404 48.6029 16.9537 48.2116 17.3312C47.8286 17.7019 47.4194 18.0532 46.9867 18.366C46.4563 18.7504 45.8928 19.0893 45.3389 19.4406C45.1474 19.5619 44.9407 19.6611 44.7451 19.7741C44.6528 19.8278 44.6362 19.8967 44.7478 19.9477C44.8636 20 44.9834 20.073 45.1033 20.0799C45.5869 20.1061 46.0705 20.1171 46.5555 20.1171C46.7677 20.1171 46.9826 20.0937 47.192 20.0551C47.5668 19.9849 47.9374 19.8967 48.3094 19.814C48.6167 19.7451 48.9239 19.6735 49.2325 19.6046C49.2532 19.6005 49.2766 19.6073 49.2987 19.6101C49.2945 19.6349 49.2987 19.6666 49.2835 19.6845C48.8909 20.1406 48.607 20.6834 48.1455 21.0871C47.9085 21.2951 47.7087 21.5459 47.4814 21.7663C47.159 22.0791 46.8338 22.3905 46.4949 22.6853C46.3475 22.8135 46.1615 22.8948 45.9975 23.0036C45.9272 23.0504 45.8542 23.1014 45.8018 23.1662C45.5704 23.4459 45.2866 23.6484 44.9642 23.8151C44.7644 23.9185 44.6032 24.0948 44.4103 24.2147C44.103 24.4048 43.7834 24.5743 43.4693 24.752C43.1909 24.9105 42.9195 25.0786 42.6343 25.2232C42.4166 25.3348 42.181 25.412 41.9578 25.5126C41.8903 25.5429 41.8393 25.6104 41.7718 25.6407C41.4411 25.784 41.1091 25.93 40.7715 26.0568C40.2618 26.2483 39.7478 26.4343 39.2312 26.6079C38.4059 26.8848 37.5723 27.1397 36.7126 27.2954C36.2083 27.3877 35.7082 27.5048 35.2053 27.5999C34.6307 27.7088 34.0562 27.8107 33.4789 27.903C33.2226 27.9444 32.9608 27.9554 32.7004 27.9733C32.1521 28.0119 31.6037 28.0436 31.0554 28.0821C30.6448 28.1111 30.2342 28.1414 29.8236 28.1827C29.3152 28.2337 28.8027 28.2406 28.297 28.3453C27.7459 28.4583 27.181 28.4955 26.6285 28.6029C26.0939 28.7063 25.5621 28.8358 25.0399 28.9915C24.402 29.183 23.7669 29.391 23.1482 29.6349C22.6012 29.8512 22.0667 30.1047 21.5459 30.3803C21.054 30.6407 20.5759 30.9314 20.1143 31.2414C19.5577 31.6148 19.0231 32.0226 18.5533 32.5062C18.1634 32.9085 17.7638 33.3026 17.3891 33.7201C17.2072 33.9226 17.0736 34.1678 16.9206 34.3979C16.7057 34.7217 16.4825 35.0427 16.2855 35.3775C16.1587 35.5938 16.0733 35.8336 15.9617 36.0595C15.9162 36.1505 15.8446 36.229 15.7908 36.3172C15.7688 36.353 15.7633 36.3985 15.7523 36.4398C15.6903 36.6506 15.6282 36.8614 15.5676 37.0722C15.4808 37.3684 15.3899 37.6633 15.3114 37.9623C15.2562 38.1758 15.2218 38.3949 15.1722 38.6112C15.1694 38.6208 15.1157 38.6333 15.0964 38.6222C14.8333 38.4886 14.5715 38.3494 14.3083 38.2158C14.008 38.0642 13.7104 37.9044 13.4031 37.768C13.0904 37.6288 12.7666 37.5103 12.4456 37.3932C12.2375 37.3175 12.024 37.2541 11.8104 37.1921C11.1794 37.0075 10.5497 36.8146 9.91455 36.6479C9.49708 36.539 9.06859 36.4687 8.64423 36.3861C8.38107 36.3351 8.11516 36.2938 7.85063 36.2483C7.8396 35.9617 7.82858 35.6765 7.81618 35.3899C7.80654 34.8264 7.81618 34.2615 7.78036 33.6994C7.75831 33.3604 7.65498 33.0284 7.60538 32.6908C7.51307 32.0639 7.28573 31.4825 6.98951 30.9314C6.66573 30.3321 6.26066 29.7837 5.64203 29.4544C4.99171 29.1086 4.29593 28.9171 3.54779 28.9736C3.45272 28.9805 3.35765 29.008 3.26396 29.0011C3.22538 28.9984 3.15787 28.9295 3.15925 28.8923C3.16201 28.614 3.17441 28.337 3.1937 28.0587C3.20885 27.8452 3.24054 27.6344 3.26121 27.4208C3.29427 27.0846 3.32596 26.7498 3.35627 26.4136C3.37005 26.2566 3.38245 26.0981 3.39072 25.941C3.41552 25.4423 3.43343 24.9435 3.46374 24.4448C3.4913 23.9997 3.5285 23.5547 3.5657 23.1097C3.58223 22.9196 3.6029 22.728 3.63597 22.5407C3.66765 22.3588 3.5657 22.2582 3.43481 22.1742C2.89609 21.8256 2.35738 21.477 1.81591 21.1353C1.72359 21.0774 1.70155 21.0402 1.73737 20.9231C1.84897 20.5622 1.92613 20.1915 2.02671 19.8278C2.0832 19.6211 2.16586 19.4213 2.22373 19.2161C2.33258 18.8317 2.42764 18.4431 2.53649 18.0573C2.61502 17.7818 2.74178 17.5145 2.78174 17.2348C2.81618 16.9909 2.77898 16.7319 2.73489 16.4853C2.68667 16.218 2.60676 15.9548 2.51858 15.6972C2.37253 15.2714 2.21409 14.8498 2.05151 14.4296C1.96608 14.2064 1.86964 13.9873 1.76493 13.7724C1.69742 13.6346 1.60097 13.5106 1.52795 13.3756C1.36123 13.0656 1.32541 12.728 1.45355 12.4098C1.66297 11.889 1.91097 11.3833 2.15484 10.8777C2.31742 10.5387 2.48964 10.2039 2.67702 9.87739C2.89609 9.49575 3.12067 9.11548 3.36867 8.75036C3.70072 8.26125 4.05895 7.79004 4.40202 7.30782C4.47228 7.20861 4.53015 7.10115 4.59353 6.99644C4.61282 6.97852 4.63211 6.96199 4.6514 6.94408C4.66517 6.94408 4.67069 6.93581 4.66931 6.92203C4.71064 6.87106 4.75198 6.82146 4.79331 6.77048C4.80709 6.7567 4.81949 6.74154 4.83327 6.72777C4.88149 6.67954 4.93109 6.6327 4.97656 6.5831C5.35545 6.17803 5.72745 5.76469 6.11461 5.36789C6.31715 5.15984 6.54448 4.97659 6.75942 4.78233C6.91924 4.64455 7.07631 4.50401 7.23751 4.37037C7.4676 4.18023 7.69356 3.98045 7.93743 3.80961C8.27498 3.57263 8.62494 3.35356 8.97766 3.14C9.06446 3.08765 9.18157 3.078 9.28628 3.0656C9.38824 3.0532 9.47366 3.0408 9.49708 2.91542C9.50535 2.87547 9.54255 2.82724 9.57975 2.80795C9.80295 2.69497 10.0289 2.59026 10.2535 2.48004C10.3031 2.45662 10.3499 2.42768 10.3995 2.40013L10.6007 2.30919L10.6034 2.30644C10.6847 2.27337 10.7647 2.2403 10.8459 2.20862L10.8501 2.20724ZM7.17551 27.903C7.17551 28.0518 7.17275 28.2006 7.17551 28.3494C7.17964 28.5092 7.23613 28.5561 7.38907 28.5024C7.67565 28.4018 7.95672 28.2847 8.2433 28.1827C8.55605 28.0697 8.87708 27.976 9.18708 27.8562C9.51913 27.728 9.84291 27.5751 10.1722 27.4401C10.3926 27.3491 10.6186 27.2692 10.8418 27.1852C11.3144 27.0075 11.7883 26.8352 12.2582 26.6534C12.5792 26.5294 12.8947 26.3916 13.2144 26.2648C13.3852 26.1973 13.5712 26.2593 13.7035 26.3985C13.8068 26.5059 13.9239 26.5996 14.0259 26.7085C14.0686 26.7539 14.0824 26.8242 14.1141 26.8807C14.1333 26.9165 14.1595 26.9496 14.1857 26.9813C14.2174 27.0185 14.2615 27.0488 14.2835 27.0915C14.3455 27.2031 14.3731 27.3478 14.4626 27.4277C14.5977 27.5489 14.6473 27.6743 14.6376 27.8479C14.6349 27.9085 14.6914 27.9733 14.7272 28.0325C14.7451 28.0628 14.7961 28.0794 14.803 28.1083C14.8402 28.264 14.8774 28.4224 14.8994 28.5809C14.9311 28.8096 14.9504 29.0397 14.9738 29.2698C14.9862 29.4034 15.0151 29.5412 15.0014 29.6735C14.9697 29.9683 14.9201 30.2618 14.8677 30.5539C14.8415 30.7013 14.7919 30.8432 14.752 30.9879C14.7437 31.0182 14.7368 31.0499 14.7244 31.0774C14.6858 31.1642 14.6445 31.2483 14.6046 31.3337C14.6032 31.3365 14.6032 31.3406 14.6018 31.3447C14.6142 31.291 14.6294 31.2373 14.639 31.1822C14.6418 31.1684 14.6266 31.1518 14.6225 31.1353C14.5894 31.0292 14.555 30.9245 14.526 30.8184C14.4434 30.5043 14.3648 30.1888 14.2794 29.876C14.2739 29.854 14.2201 29.8292 14.1912 29.8319C13.9253 29.854 13.6608 29.8829 13.3962 29.9063C13.0463 29.938 12.6977 29.9683 12.3477 29.9986C12.2747 30.0055 12.2017 30.0138 12.1287 30.0207C11.871 30.0482 11.6134 30.0758 11.3543 30.0992C11.3199 30.102 11.2827 30.0786 11.2469 30.0675C11.2648 30.0524 11.2786 30.0289 11.2992 30.0221C11.8848 29.7961 12.4717 29.5701 13.0573 29.3456C13.3535 29.2312 13.6525 29.121 13.9446 28.997C13.9777 28.9832 14.0093 28.8826 13.9928 28.8454C13.8371 28.4927 13.6787 28.14 13.5023 27.7983C13.3521 27.509 13.2777 27.4966 12.9843 27.6151C12.6453 27.7515 12.2857 27.8272 11.9592 28.0008C11.7539 28.1097 11.5238 28.1689 11.3061 28.253C10.9231 28.4032 10.5442 28.5616 10.1598 28.7076C9.7382 28.8675 9.31246 29.0149 8.89086 29.172C8.77926 29.2133 8.65388 29.2684 8.69797 29.42C8.76272 29.6404 8.8509 29.8526 8.9253 30.0703C8.98317 30.2398 8.93908 30.3018 8.75721 30.3086C8.63734 30.3128 8.51472 30.299 8.39761 30.3155C8.35214 30.3224 8.27498 30.3996 8.28187 30.4299C8.34387 30.7123 8.41552 30.992 8.49819 31.269C8.53539 31.3916 8.62908 31.4632 8.77237 31.4426C8.84126 31.4329 8.9129 31.4315 8.98179 31.4343C9.28215 31.4481 9.58389 31.4591 9.88424 31.4798C10.1198 31.4963 10.3541 31.528 10.5883 31.55C10.6944 31.5597 10.8019 31.5666 10.9079 31.5707C11.1739 31.5817 11.4384 31.5914 11.7043 31.601C11.7429 31.6024 11.7815 31.601 11.82 31.601C11.7911 31.6258 11.7649 31.6547 11.7319 31.6727C11.4894 31.8022 11.2359 31.9124 11.0058 32.0598C10.6903 32.2623 10.3747 32.4718 10.0909 32.717C9.8498 32.9251 9.61833 33.162 9.44611 33.428C9.16366 33.862 9.02726 34.3607 8.96112 34.8746C8.94459 35 9.00797 35.0786 9.10993 35.1061C9.26011 35.1461 9.41855 35.1598 9.57286 35.1805C9.70651 35.1984 9.84429 35.1984 9.97518 35.2287C10.2053 35.2838 10.4298 35.3665 10.6613 35.4175C10.8749 35.4643 11.0967 35.474 11.3103 35.5181C11.5362 35.5649 11.7553 35.649 11.9812 35.6917C12.5861 35.8088 13.1937 35.908 13.7985 36.0237C13.9432 36.0513 14.0383 36.0154 14.1085 35.8928C14.2394 35.6641 14.3648 35.4313 14.5054 35.2081C14.7933 34.7479 15.0813 34.2849 15.3871 33.8358C15.609 33.5092 15.8501 33.1951 16.1022 32.8906C16.3502 32.5916 16.612 32.3037 16.8875 32.0309C17.4263 31.4949 17.9608 30.9521 18.5313 30.4506C18.9721 30.0634 19.4558 29.7217 19.938 29.3855C20.2631 29.1596 20.569 28.8964 20.9534 28.7628C20.9906 28.7504 21.0209 28.7214 21.0554 28.7021C21.4219 28.5065 21.7828 28.3012 22.1548 28.1193C22.44 27.9788 22.739 27.8644 23.0339 27.7446C23.3081 27.633 23.5864 27.5283 23.8633 27.4222C24.019 27.3629 24.1774 27.3092 24.3318 27.2486C24.3607 27.2375 24.3813 27.2072 24.4048 27.1866C24.3758 27.1645 24.3497 27.1315 24.3166 27.1232C24.2201 27.0956 24.1196 27.0832 24.0231 27.0557C23.8688 27.0116 23.7186 26.9579 23.5657 26.9138C23.4004 26.8669 23.2295 26.8366 23.0683 26.7801C22.8492 26.7043 22.6371 26.6038 22.4194 26.5239C22.1865 26.4384 21.9468 26.3737 21.7167 26.2827C21.5569 26.2194 21.4108 26.1243 21.2551 26.0513C21.0016 25.9328 20.7399 25.8322 20.4905 25.7054C20.0358 25.4712 19.5839 25.2301 19.1402 24.9766C19.0328 24.916 18.9446 24.8567 18.8426 24.949C18.6484 25.124 18.4458 25.2935 18.2764 25.4905C18.0036 25.806 17.7624 26.1505 17.491 26.4687C17.2844 26.7112 17.0515 26.9331 16.8269 27.1618C16.8035 27.1852 16.7649 27.1935 16.7319 27.2072C16.7387 27.1714 16.7401 27.1342 16.7539 27.1011C16.7773 27.0433 16.8118 26.9895 16.8366 26.9317C17.0598 26.4191 17.2775 25.9038 17.5034 25.3913C17.6894 24.9697 17.8864 24.5536 18.0738 24.132C18.2061 23.8344 18.326 23.5313 18.4624 23.2351C18.5767 22.9871 18.7145 22.7501 18.8275 22.5021C19.0162 22.0874 19.1926 21.6685 19.3772 21.2524C19.4861 21.0044 19.6059 20.7606 19.7093 20.5112C19.7602 20.3872 19.8264 20.2535 19.6996 20.1268C19.5756 20.0042 19.442 19.8884 19.3373 19.7506C18.7503 18.9763 18.1413 18.2116 17.7556 17.3092C17.5985 16.9413 17.4841 16.5569 17.3326 16.1863C17.2871 16.0733 17.2058 15.9355 17.1052 15.8928C16.8614 15.7895 16.601 15.7192 16.3406 15.6627C15.9479 15.5773 15.5525 15.5043 15.1543 15.4478C14.6707 15.3789 14.1857 15.3059 13.698 15.2852C13.0242 15.2577 12.3477 15.2783 11.6726 15.2783C11.5403 15.2783 11.4081 15.2673 11.2786 15.2838C10.8611 15.3362 10.4367 15.3073 10.0206 15.4078C9.69549 15.4864 9.35517 15.5015 9.02588 15.5663C8.65939 15.6393 8.29703 15.733 7.93605 15.8253C7.46622 15.9466 6.99502 16.0637 6.5307 16.2056C6.00025 16.3668 5.47669 16.5514 4.95038 16.725C4.92558 16.7333 4.90078 16.7429 4.87873 16.7553C4.74784 16.8228 4.61971 16.8986 4.48468 16.9592C4.23668 17.0708 4.00384 17.1838 3.93908 17.4911C3.86606 17.8328 3.77926 18.1731 3.68281 18.5092C3.49268 19.1637 3.29152 19.814 3.09449 20.4671C3.06556 20.5608 3.09036 20.6324 3.17303 20.6834C3.57259 20.93 3.96388 21.1932 4.37446 21.4191C4.78091 21.6423 4.80709 21.6616 4.73544 22.1246C4.73131 22.1521 4.73544 22.1811 4.73406 22.21C4.72166 23.0146 4.71891 23.8193 4.69411 24.6225C4.68033 25.0744 4.6266 25.5236 4.59766 25.9741C4.57011 26.4095 4.54668 26.8463 4.53015 27.283C4.52602 27.3919 4.55357 27.5021 4.56597 27.6123C4.68171 27.5875 4.80433 27.5779 4.9118 27.5338C5.27829 27.3877 5.6379 27.2238 6.00439 27.0763C6.36537 26.9303 6.73875 26.8146 7.09009 26.6506C7.36564 26.5225 7.62467 26.3695 7.93054 26.3062C8.06281 26.2786 8.17992 26.1629 8.29703 26.0788C8.32459 26.0595 8.33423 26.003 8.33561 25.9631C8.33974 25.8267 8.33147 25.6889 8.33836 25.5511C8.35214 25.2949 8.38245 25.2825 8.59463 25.4134C8.62494 25.4313 8.67179 25.4216 8.71037 25.4271C8.76548 25.4354 8.82472 25.4354 8.8757 25.4561C9.24908 25.6035 9.61833 25.7606 9.99447 25.9025C10.0978 25.941 10.1006 25.9686 10.0248 26.032C9.99033 26.0609 9.95451 26.094 9.91455 26.1105C9.48193 26.2896 9.0493 26.4674 8.6153 26.6437C8.22263 26.8022 7.82996 26.9579 7.43591 27.1122C7.2444 27.1879 7.17138 27.2858 7.17 27.4883C7.17 27.6261 7.17 27.7625 7.17 27.9003L7.17551 27.903ZM37.4938 19.7231C37.4938 19.7052 37.4938 19.6859 37.4938 19.668C37.8341 19.668 38.1758 19.668 38.5161 19.668C38.5381 19.668 38.5616 19.6638 38.5836 19.6611C38.9253 19.6073 39.267 19.5522 39.6087 19.4999C39.7878 19.4723 39.971 19.4682 40.1446 19.4241C40.642 19.2973 41.1367 19.1568 41.6299 19.0163C41.7429 18.9846 41.8476 18.9281 41.9578 18.8881C42.3064 18.7586 42.6619 18.647 43.0036 18.4996C43.2957 18.3742 43.5726 18.2144 43.8523 18.0628C44.2546 17.8438 44.6693 17.644 45.0496 17.3905C45.4974 17.0915 45.9079 16.7374 46.3447 16.4219C46.9344 15.9962 47.4497 15.4878 47.9608 14.9766C48.1427 14.7961 48.3094 14.6005 48.4789 14.4076C48.523 14.3566 48.5299 14.3042 48.4307 14.3221C48.3976 14.3277 48.3632 14.329 48.3315 14.3345C48.0077 14.3993 47.6853 14.4682 47.3601 14.5288C47.2058 14.5577 47.0474 14.566 46.8917 14.5894C46.5831 14.6349 46.2772 14.701 45.9686 14.7286C45.6117 14.7589 45.2521 14.7644 44.8939 14.7672C43.8592 14.7768 42.8244 14.7933 41.798 14.628C41.4095 14.566 41.0154 14.5261 40.6269 14.4599C40.1998 14.3883 39.774 14.307 39.351 14.2147C39.1154 14.1637 38.8881 14.081 38.6553 14.0177C38.235 13.9033 37.812 13.7972 37.3932 13.6773C37.2348 13.6319 37.0859 13.552 36.9289 13.501C36.725 13.4348 36.5142 13.3908 36.313 13.3191C35.8804 13.1662 35.4491 13.005 35.0206 12.8424C34.8581 12.7804 34.6969 12.7143 34.5412 12.6371C34.0397 12.3932 33.5381 12.1466 33.0394 11.8959C32.7142 11.7333 32.3918 11.5666 32.0722 11.3916C31.6754 11.1753 31.2882 10.9424 30.8887 10.7316C30.7908 10.6806 30.8101 10.6393 30.8515 10.5856C30.9658 10.4395 31.0884 10.299 31.2055 10.1543C31.4963 9.79473 31.8007 9.44615 32.0708 9.07139C32.3202 8.72556 32.5516 8.36182 32.7542 7.98707C33.0049 7.52413 33.2213 7.0419 33.4445 6.56519C33.5161 6.41087 33.5698 6.24692 33.6181 6.08296C33.6277 6.04852 33.5726 5.95758 33.5505 5.95896C33.4637 5.96309 33.3783 5.99065 33.2943 6.01407C33.0518 6.08158 32.8134 6.16563 32.5682 6.21798C32.2361 6.28963 31.8848 6.2979 31.5665 6.40399C31.127 6.55141 30.6792 6.47288 30.237 6.5211C29.8732 6.56105 29.4985 6.50181 29.1292 6.50043C28.6029 6.49905 28.089 6.39985 27.5709 6.32821C27.0005 6.25105 26.4494 6.10914 25.9011 5.94656C25.7399 5.89834 25.5842 5.8322 25.4271 5.77296C24.9793 5.60211 24.526 5.44229 24.0851 5.25353C23.7021 5.08957 23.3356 4.89255 22.9595 4.71206C22.8189 4.64455 22.6701 4.59219 22.5296 4.52468C22.3904 4.45717 22.2609 4.36623 22.1176 4.30837C21.8627 4.20641 21.6023 4.11961 21.3419 4.03005C20.7068 3.81098 20.073 3.59054 19.4351 3.37836C19.1761 3.29156 18.9115 3.21991 18.6456 3.15653C18.4651 3.11382 18.2791 3.09591 18.0959 3.06836C17.9898 3.0532 17.8768 3.06147 17.779 3.02427C17.4538 2.89889 17.1163 2.86169 16.7732 2.86307C16.7015 2.86307 16.6299 2.89475 16.5583 2.892C16.2138 2.87409 15.868 2.82862 15.5235 2.83138C15.0592 2.83413 14.5935 2.8672 14.1292 2.89889C13.9267 2.91267 13.7255 2.94435 13.5257 2.98018C13.0518 3.0656 12.5778 3.15791 12.1052 3.24885C12.0364 3.26262 11.9647 3.28054 11.9013 3.31085C11.6823 3.41556 11.4701 3.53543 11.2469 3.63049C11.0705 3.70627 10.8721 3.73658 10.7013 3.82063C10.3761 3.97907 10.0634 4.1637 9.74371 4.33454C9.42957 4.50126 9.10166 4.64593 8.8013 4.83468C8.5409 5.00002 8.3053 5.20806 8.06832 5.40784C7.60676 5.79362 7.13969 6.17389 6.69879 6.58034C6.37639 6.87794 6.0843 7.21137 5.79083 7.54066C5.51803 7.84515 5.26038 8.16342 4.99998 8.47894C4.82775 8.68836 4.66242 8.9033 4.49433 9.11685C4.40064 9.23534 4.29868 9.3497 4.21877 9.47783C4.14437 9.5977 4.11544 9.7465 4.03277 9.85948C3.85503 10.1006 3.64974 10.3086 3.5285 10.6021C3.3301 11.0802 3.04627 11.5239 2.80516 11.9854C2.75694 12.0777 2.71974 12.1824 2.70871 12.2858C2.6908 12.4525 2.72662 12.4718 2.87129 12.3877C3.10276 12.2541 3.32321 12.0998 3.56157 11.9799C4.0989 11.7112 4.64175 11.4563 5.18598 11.2042C5.43123 11.0912 5.68198 10.9838 5.93963 10.9011C6.28821 10.7881 6.64368 10.6999 6.9964 10.6007C7.1824 10.5484 7.36702 10.4864 7.55716 10.4464C7.85751 10.383 8.15925 10.3279 8.46236 10.2838C8.90877 10.2177 9.35517 10.1571 9.80295 10.1047C10.0165 10.0799 10.2328 10.0854 10.4464 10.0662C10.8928 10.0234 11.3351 9.99313 11.787 10.0234C12.2954 10.0579 12.8052 10.0469 13.3108 10.1323C13.793 10.2136 14.2808 10.2577 14.7602 10.3472C15.2604 10.4409 15.7605 10.547 16.2483 10.693C16.8007 10.8584 17.345 11.0582 17.8823 11.2717C18.4128 11.4825 18.9349 11.7181 19.4502 11.9634C19.7878 12.1232 20.1116 12.3133 20.434 12.5035C20.8349 12.7404 21.229 12.9926 21.6244 13.2378C21.8655 13.388 22.1108 13.5327 22.3464 13.6911C22.604 13.8633 22.8465 14.059 23.1055 14.2271C23.6677 14.5936 24.2367 14.9518 24.8043 15.3086C25.6255 15.8253 26.448 16.3392 27.3243 16.765C27.8148 17.0033 28.2819 17.2913 28.7765 17.52C29.3304 17.7763 29.9008 17.9967 30.4698 18.2185C30.9851 18.4197 31.5031 18.6112 32.0267 18.7889C32.4056 18.9171 32.79 19.0383 33.1799 19.1182C33.4693 19.1775 33.7462 19.3814 34.0645 19.2326C34.0755 19.2271 34.1003 19.256 34.1209 19.2629C34.2505 19.3097 34.3786 19.3676 34.5122 19.3965C34.6858 19.4337 34.8718 19.4227 35.0399 19.4765C35.3541 19.5757 35.6751 19.5908 35.9989 19.6087C36.4963 19.6363 36.9923 19.6859 37.4883 19.7258L37.4938 19.7231ZM29.1389 26.4991C29.1389 26.4991 29.1389 26.4963 29.1389 26.4949C29.3249 26.5073 29.5109 26.5307 29.6969 26.5307C30.3251 26.5321 30.9534 26.55 31.5803 26.4426C32.035 26.3654 32.502 26.3599 32.965 26.331C33.4072 26.3034 33.8247 26.1064 34.2766 26.1477C34.2863 26.1477 34.2973 26.1381 34.3083 26.1353C34.6238 26.0582 34.9407 25.9906 35.2535 25.9038C35.715 25.7743 36.178 25.6462 36.6313 25.4905C37.243 25.2797 37.8479 25.0469 38.45 24.8126C38.8137 24.6707 39.1747 24.5205 39.5274 24.3538C39.9008 24.1775 40.2659 23.9818 40.6296 23.7834C40.9934 23.585 41.353 23.3797 41.7084 23.1662C41.9757 23.005 42.2361 22.8328 42.4938 22.6564C42.7128 22.5062 42.925 22.345 43.1386 22.1852C43.1689 22.1618 43.184 22.1204 43.2061 22.086C43.1648 22.0736 43.122 22.0488 43.0807 22.0515C42.6812 22.0791 42.283 22.1397 41.8848 22.137C40.9562 22.1301 40.0289 22.0984 39.1003 22.0653C38.8481 22.0571 38.5974 22.0171 38.348 21.9799C37.9898 21.9262 37.6329 21.8587 37.2747 21.8008C36.9551 21.7484 36.6327 21.7099 36.3144 21.6492C36.0388 21.5983 35.7674 21.5266 35.4946 21.4632C35.051 21.3585 34.6032 21.269 34.165 21.1408C33.6525 20.992 33.151 20.8088 32.644 20.6421C32.4166 20.5677 32.1852 20.5015 31.9592 20.4216C31.6561 20.3155 31.3557 20.1998 31.0526 20.0882C30.9341 20.0441 30.8129 20.0083 30.6971 19.9601C30.4009 19.8347 30.1074 19.6997 29.8098 19.5757C29.4213 19.4145 29.0217 19.2767 28.6401 19.0989C28.0146 18.8082 27.4001 18.4955 26.7828 18.1882C26.4356 18.0146 26.0898 17.8369 25.7467 17.6564C25.2742 17.4084 24.7988 17.1659 24.3359 16.9027C23.7765 16.5859 23.2268 16.2552 22.677 15.9245C22.3891 15.7509 22.1052 15.5704 21.8242 15.3858C21.4549 15.1433 21.0898 14.8939 20.7261 14.6445C20.4726 14.4709 20.2246 14.2877 19.9683 14.1169C19.9325 14.0934 19.8691 14.1127 19.8181 14.1127C19.825 14.1499 19.8333 14.1871 19.8388 14.2257C19.8443 14.2698 19.8526 14.3153 19.8484 14.3593C19.8402 14.4599 19.8195 14.5591 19.8167 14.6597C19.8002 15.175 19.8167 15.6875 19.927 16.1932C19.9655 16.3723 19.9752 16.5583 20.022 16.7347C20.0978 17.0171 20.1956 17.294 20.2769 17.5751C20.2962 17.644 20.2659 17.7322 20.2976 17.7914C20.4133 18.0132 20.5497 18.224 20.6696 18.4431C21.043 19.1306 21.4522 19.7933 21.995 20.3638C22.1121 20.4864 22.1025 20.609 22.006 20.7399C21.7208 21.1257 21.4384 21.5156 21.1518 21.9014C20.7564 22.4346 20.3582 22.965 19.9614 23.4968C19.8608 23.6319 19.8705 23.709 20.0165 23.7903C20.383 23.9942 20.7495 24.1981 21.1243 24.3855C21.4439 24.5453 21.7759 24.679 22.1011 24.8278C22.3767 24.9532 22.644 25.1034 22.9278 25.2053C23.4017 25.3748 23.8853 25.5208 24.3676 25.6669C24.8167 25.8019 25.2673 25.9328 25.7206 26.0471C26.0237 26.1243 26.3351 26.1739 26.6437 26.2262C27.0295 26.2924 27.4056 26.3971 27.8038 26.404C28.2488 26.4109 28.6925 26.466 29.1375 26.5004L29.1389 26.4991Z" fill="#035562"/>
<path d="M7.17558 27.9031C7.17558 27.7653 7.17558 27.6289 7.17558 27.4911C7.17696 27.2886 7.24998 27.1907 7.4415 27.115C7.83554 26.9606 8.22821 26.805 8.62088 26.6465C9.05489 26.4715 9.48751 26.2938 9.92014 26.1133C9.9601 26.0968 9.99592 26.0637 10.0304 26.0348C10.1061 25.9728 10.1034 25.9452 10.0001 25.9053C9.62392 25.7633 9.25467 25.6063 8.88129 25.4589C8.83031 25.4382 8.77106 25.4382 8.71595 25.4299C8.67737 25.4244 8.63053 25.4341 8.60022 25.4161C8.38804 25.2839 8.35635 25.2977 8.34395 25.5539C8.33706 25.6903 8.34533 25.8281 8.34119 25.9659C8.34119 26.0058 8.33017 26.061 8.30261 26.0816C8.1855 26.1657 8.06839 26.2828 7.93612 26.309C7.63025 26.3723 7.37123 26.5239 7.09567 26.6534C6.74433 26.8174 6.37095 26.9331 6.00997 27.0791C5.64348 27.2266 5.28388 27.3905 4.91738 27.5366C4.80854 27.5793 4.68729 27.5889 4.57156 27.6151C4.55916 27.5049 4.5316 27.3946 4.53574 27.2858C4.55227 26.849 4.57569 26.4137 4.60325 25.9769C4.63218 25.5264 4.68592 25.0758 4.69969 24.6253C4.72449 23.822 4.72725 23.0174 4.73965 22.2128C4.73965 22.1838 4.73689 22.1549 4.74103 22.1274C4.81267 21.6644 4.7865 21.6451 4.38005 21.4219C3.96947 21.196 3.57817 20.9328 3.17861 20.6862C3.09457 20.6352 3.07115 20.5636 3.10008 20.4699C3.2971 19.8182 3.49964 19.1665 3.6884 18.512C3.78622 18.1759 3.87302 17.8355 3.94467 17.4939C4.00942 17.1866 4.24365 17.0736 4.49027 16.962C4.62529 16.9014 4.75205 16.8256 4.88432 16.7581C4.90774 16.7457 4.93116 16.7361 4.95596 16.7278C5.48228 16.5528 6.00584 16.3682 6.53629 16.2084C7.0006 16.0678 7.47181 15.9493 7.94163 15.8281C8.30399 15.7344 8.66635 15.6421 9.03147 15.5691C9.36076 15.5043 9.70107 15.4892 10.0262 15.4106C10.4423 15.3101 10.8667 15.339 11.2842 15.2866C11.4137 15.2701 11.5473 15.2811 11.6782 15.2811C12.3533 15.2811 13.0298 15.2605 13.7036 15.288C14.1899 15.3073 14.6763 15.3817 15.1599 15.4506C15.5581 15.5071 15.9535 15.5815 16.3462 15.6655C16.6066 15.722 16.867 15.7909 17.1108 15.8956C17.2114 15.9383 17.2927 16.0761 17.3382 16.1891C17.4883 16.5597 17.6041 16.9455 17.7611 17.312C18.1483 18.2144 18.7559 18.9791 19.3428 19.7534C19.4476 19.8912 19.5812 20.0069 19.7052 20.1296C19.832 20.2563 19.7658 20.3913 19.7148 20.514C19.6115 20.7647 19.4916 21.0086 19.3828 21.2552C19.1982 21.6713 19.0218 22.0915 18.8331 22.5049C18.7201 22.7529 18.5823 22.9899 18.4679 23.2379C18.3315 23.5341 18.2117 23.8372 18.0794 24.1348C17.892 24.555 17.695 24.9725 17.509 25.3941C17.2831 25.9053 17.064 26.4206 16.8422 26.9345C16.8174 26.9923 16.7829 27.0461 16.7595 27.1039C16.7457 27.137 16.7443 27.1742 16.7374 27.21C16.7691 27.1949 16.8091 27.188 16.8325 27.1646C17.0557 26.9358 17.2886 26.7154 17.4966 26.4715C17.768 26.1533 18.0091 25.8102 18.2819 25.4933C18.4514 25.2963 18.654 25.1268 18.8482 24.9518C18.9502 24.8595 19.0384 24.9188 19.1458 24.9794C19.5895 25.2329 20.0414 25.4754 20.4961 25.7082C20.7441 25.8364 21.0072 25.9369 21.2607 26.0541C21.4164 26.1271 21.5625 26.2222 21.7223 26.2855C21.9524 26.3765 22.1935 26.4412 22.425 26.5266C22.644 26.6066 22.8548 26.7058 23.0739 26.7829C23.2351 26.8394 23.4059 26.8697 23.5713 26.9166C23.7256 26.9606 23.8758 27.0144 24.0287 27.0585C24.1252 27.086 24.2257 27.0984 24.3222 27.126C24.3552 27.1356 24.3814 27.1673 24.4104 27.1894C24.3856 27.21 24.3649 27.2403 24.3373 27.2514C24.1816 27.312 24.0246 27.3657 23.8689 27.425C23.592 27.5311 23.315 27.6358 23.0395 27.7474C22.7446 27.8672 22.4456 27.9816 22.1604 28.1221C21.7884 28.304 21.4261 28.5093 21.061 28.7049C21.0265 28.7242 20.9948 28.7518 20.959 28.7656C20.5746 28.8978 20.2687 29.161 19.9436 29.3883C19.4613 29.7245 18.9777 30.0662 18.5368 30.4533C17.9664 30.9549 17.4319 31.4977 16.8931 32.0337C16.6176 32.3078 16.3558 32.5958 16.1078 32.8934C15.8557 33.1965 15.6145 33.512 15.3927 33.8386C15.0869 34.2877 14.7989 34.7493 14.5109 35.2109C14.3704 35.4341 14.2464 35.6669 14.1141 35.8956C14.0439 36.0182 13.9488 36.0541 13.8041 36.0265C13.1993 35.9108 12.5917 35.8116 11.9868 35.6945C11.7609 35.6504 11.5418 35.5677 11.3158 35.5209C11.1023 35.4754 10.8805 35.4671 10.6669 35.4203C10.4354 35.3693 10.2122 35.2866 9.98076 35.2315C9.84987 35.2012 9.71209 35.2012 9.57845 35.1833C9.42276 35.1626 9.26569 35.1489 9.11551 35.1089C9.01356 35.0813 8.95018 35.0028 8.96671 34.8774C9.03284 34.3621 9.16924 33.8648 9.45169 33.4307C9.62392 33.1648 9.85538 32.9279 10.0965 32.7198C10.3803 32.4759 10.6958 32.2651 11.0113 32.0626C11.2414 31.9152 11.495 31.8036 11.7374 31.6754C11.7705 31.6575 11.7967 31.6286 11.8256 31.6038C11.787 31.6038 11.7485 31.6052 11.7099 31.6038C11.444 31.5942 11.1794 31.5845 10.9135 31.5735C10.8061 31.5694 10.7 31.5625 10.5939 31.5528C10.3597 31.5308 10.1254 31.4991 9.88983 31.4826C9.58947 31.4619 9.28911 31.4495 8.98738 31.4371C8.91711 31.4343 8.84684 31.4357 8.77795 31.4454C8.63466 31.466 8.54097 31.3944 8.50377 31.2718C8.4211 30.9948 8.34946 30.7151 8.28746 30.4327C8.28057 30.4024 8.35773 30.3252 8.40319 30.3183C8.52168 30.3018 8.64293 30.3156 8.7628 30.3114C8.94466 30.3045 8.98875 30.2425 8.93089 30.0731C8.85649 29.8554 8.76831 29.6432 8.70355 29.4228C8.65946 29.2712 8.78484 29.2161 8.89644 29.1748C9.31805 29.0177 9.74378 28.8703 10.1654 28.7104C10.5498 28.5644 10.9301 28.4059 11.3117 28.2558C11.5294 28.1703 11.7595 28.1111 11.9648 28.0036C12.2913 27.83 12.6509 27.7543 12.9899 27.6179C13.2833 27.4994 13.3577 27.5118 13.5079 27.8011C13.6843 28.1442 13.8427 28.4969 13.9984 28.8482C14.0149 28.8868 13.9832 28.986 13.9502 28.9998C13.6581 29.1238 13.3591 29.234 13.0629 29.3484C12.4773 29.5743 11.8904 29.7989 11.3048 30.0249C11.2842 30.0331 11.2704 30.0552 11.2525 30.0703C11.2883 30.0813 11.3255 30.1048 11.3599 30.102C11.6176 30.0786 11.8752 30.0497 12.1342 30.0235C12.2073 30.0152 12.2803 30.0083 12.3533 30.0014C12.7033 29.9711 13.0519 29.9408 13.4018 29.9091C13.6664 29.8843 13.9323 29.8554 14.1968 29.8347C14.2257 29.832 14.2795 29.8568 14.285 29.8788C14.3704 30.1916 14.4489 30.5071 14.5316 30.8212C14.5592 30.9273 14.595 31.0334 14.628 31.1381C14.6336 31.1533 14.6473 31.1698 14.6446 31.185C14.6349 31.2401 14.6198 31.2938 14.6074 31.3475C14.6074 31.3434 14.6088 31.3406 14.6101 31.3365C14.6501 31.2511 14.6914 31.1657 14.73 31.0802C14.7424 31.0513 14.7493 31.021 14.7576 30.9907C14.7975 30.846 14.8471 30.7041 14.8733 30.5567C14.9257 30.2646 14.9753 29.9711 15.0069 29.6763C15.0207 29.544 14.9932 29.4076 14.9794 29.2726C14.9573 29.0425 14.9367 28.8124 14.905 28.5837C14.8829 28.4252 14.8471 28.2668 14.8085 28.1111C14.8017 28.0822 14.7507 28.0656 14.7328 28.0353C14.6969 27.9761 14.6391 27.9113 14.6432 27.8507C14.6528 27.6757 14.6032 27.5517 14.4682 27.4305C14.38 27.3519 14.3511 27.2059 14.2891 27.0943C14.2657 27.053 14.2216 27.0226 14.1913 26.9841C14.1651 26.9524 14.1389 26.9193 14.1196 26.8835C14.088 26.827 14.0742 26.7567 14.0315 26.7113C13.9295 26.6024 13.8124 26.5087 13.7091 26.4013C13.5768 26.2621 13.3908 26.2015 13.2199 26.2676C12.9003 26.3944 12.5848 26.5322 12.2638 26.6562C11.7939 26.838 11.32 27.0116 10.8474 27.188C10.6242 27.272 10.3982 27.3519 10.1778 27.4429C9.8485 27.5779 9.52471 27.7308 9.19267 27.859C8.88266 27.9788 8.56302 28.0739 8.24888 28.1855C7.9623 28.2888 7.68123 28.4046 7.39465 28.5051C7.24172 28.5589 7.18385 28.512 7.18109 28.3522C7.17834 28.2034 7.18109 28.0546 7.18109 27.9058L7.17558 27.9031ZM12.9182 19.905C12.8576 19.8457 12.8245 19.7837 12.7846 19.7796C12.498 19.7479 12.2114 19.7328 11.9248 19.7024C11.8063 19.69 11.6906 19.6501 11.5735 19.6225C11.6479 19.5137 11.7223 19.4048 11.7981 19.296C11.8008 19.2919 11.805 19.2864 11.8105 19.2836C12.1439 19.1141 12.4663 18.9144 12.8135 18.7821C13.1951 18.636 13.6002 18.5506 13.9956 18.4376C14.0576 18.4197 14.1169 18.3949 14.1775 18.3743C14.1265 18.3178 14.0783 18.2571 14.0232 18.2048C13.9998 18.1827 13.964 18.1662 13.9336 18.1635C13.7642 18.1483 13.5933 18.1414 13.4252 18.1235C13.1855 18.0987 12.9458 18.067 12.706 18.0395C12.5379 18.0202 12.3657 17.9747 12.2018 17.9954C12.0654 18.0133 11.9372 18.1056 11.8105 18.1745C11.4729 18.3605 11.1478 18.5672 10.8019 18.7352C10.4065 18.9268 9.98903 19.0728 9.59223 19.2616C8.79862 19.6377 7.94439 19.8278 7.11083 20.0758C6.77051 20.1778 6.40678 20.1985 6.05268 20.2549C5.76335 20.3018 5.47263 20.3445 5.1833 20.3913C5.14196 20.3982 5.10201 20.4161 5.06205 20.4299C5.09099 20.4616 5.11441 20.5071 5.15161 20.5236C5.36792 20.6214 5.58837 20.7069 5.8033 20.8061C5.93006 20.8639 6.04717 20.9438 6.17255 21.0045C6.48807 21.156 6.80771 21.2993 7.12323 21.4509C7.32301 21.5473 7.51452 21.6617 7.71568 21.754C8.04083 21.9028 8.37564 22.0323 8.7008 22.1811C8.97773 22.3079 9.24364 22.4567 9.5192 22.5848C9.70796 22.673 9.75618 22.6344 9.75618 22.4181C9.75618 22.2183 9.73827 22.0158 9.8981 21.8559C10.0951 21.6603 10.2742 21.4412 10.4905 21.2704C10.6958 21.1078 10.8805 20.9232 11.1298 20.8033C11.6479 20.5525 12.1701 20.3169 12.7115 20.1213C12.7873 20.0937 12.8369 19.9945 12.921 19.9036L12.9182 19.905ZM18.0532 21.3489C17.9843 21.3241 17.9292 21.291 17.8714 21.2855C17.3519 21.247 16.8325 21.1836 16.3131 21.1863C15.6793 21.1891 15.0428 21.2153 14.4145 21.2938C13.8799 21.3599 13.3495 21.4867 12.8314 21.6355C12.1701 21.8256 11.6314 22.2334 11.167 22.7336C10.9549 22.9623 10.7702 23.2117 10.6669 23.5107C10.6504 23.5575 10.671 23.6278 10.6972 23.676C10.711 23.7008 10.7771 23.7132 10.8143 23.7077C11.0237 23.6691 11.2304 23.6126 11.4412 23.5837C11.765 23.5368 12.0915 23.4941 12.4181 23.4748C12.7584 23.4542 13.1001 23.4555 13.4404 23.4583C13.8331 23.4611 14.2175 23.654 14.6184 23.5217C14.6363 23.5162 14.6625 23.5258 14.6832 23.5327C14.9353 23.6209 15.1874 23.7091 15.4382 23.8014C15.5002 23.8248 15.5539 23.8689 15.6145 23.8951C15.9976 24.0563 16.3393 24.2767 16.6231 24.584C16.6396 24.6019 16.7002 24.6032 16.7195 24.5867C16.754 24.5592 16.7774 24.5151 16.7953 24.4737C17.0116 23.9736 17.2279 23.4735 17.4401 22.9706C17.549 22.7115 17.6523 22.4484 17.7529 22.1852C17.8535 21.9179 17.9471 21.6493 18.0546 21.3503L18.0532 21.3489Z" fill="#FCFDFD"/>
<path d="M37.4938 19.7231C36.9978 19.6831 36.5018 19.6349 36.0044 19.606C35.6806 19.5881 35.3596 19.5729 35.0454 19.4737C34.8773 19.4213 34.6913 19.431 34.5177 19.3938C34.3841 19.3648 34.2573 19.307 34.1264 19.2601C34.1058 19.2532 34.081 19.2243 34.07 19.2298C33.7517 19.3786 33.4734 19.1747 33.1854 19.1155C32.7941 19.0356 32.4111 18.9143 32.0322 18.7862C31.5086 18.6084 30.9892 18.4169 30.4753 18.2158C29.9063 17.9939 29.3359 17.7721 28.782 17.5172C28.2874 17.2885 27.8203 17.0006 27.3298 16.7622C26.4549 16.3365 25.6324 15.8212 24.8098 15.3059C24.2408 14.949 23.6732 14.5908 23.111 14.2243C22.852 14.0548 22.6095 13.8606 22.3519 13.6884C22.1163 13.5299 21.871 13.3852 21.6299 13.2351C21.2331 12.9898 20.8404 12.7377 20.4395 12.5007C20.1171 12.3106 19.7933 12.1218 19.4557 11.9606C18.9404 11.7154 18.4183 11.4798 17.8878 11.269C17.3505 11.0554 16.8076 10.8556 16.2538 10.6903C15.7674 10.5442 15.2659 10.4381 14.7657 10.3445C14.2863 10.2535 13.7972 10.2108 13.3163 10.1295C12.8107 10.0441 12.2995 10.0551 11.7925 10.0207C11.3406 9.98899 10.8983 10.0207 10.4519 10.0634C10.2383 10.0841 10.0206 10.0772 9.80845 10.102C9.36067 10.1543 8.91427 10.2136 8.46786 10.2811C8.16475 10.3265 7.86301 10.3817 7.56265 10.4437C7.3739 10.4836 7.18927 10.5456 7.00189 10.598C6.64918 10.6972 6.29233 10.7853 5.94513 10.8983C5.68748 10.9824 5.43672 11.0885 5.19148 11.2014C4.64725 11.4536 4.10302 11.7098 3.56706 11.9771C3.32871 12.0956 3.10826 12.2513 2.87679 12.385C2.73212 12.469 2.6963 12.4497 2.71421 12.283C2.72523 12.1811 2.76243 12.075 2.81066 11.9826C3.05177 11.5211 3.33422 11.0774 3.534 10.5993C3.65662 10.3059 3.86191 10.0978 4.03827 9.85672C4.12093 9.74512 4.14987 9.59494 4.22427 9.47507C4.3028 9.34694 4.40614 9.23396 4.49983 9.11409C4.66792 8.90053 4.83325 8.6856 5.00548 8.47617C5.26588 8.16066 5.5249 7.84377 5.79633 7.5379C6.0898 7.20998 6.38189 6.87656 6.70429 6.57758C7.14518 6.16975 7.61363 5.79086 8.07381 5.40508C8.31217 5.2053 8.5464 4.99725 8.8068 4.83192C9.10716 4.64178 9.43507 4.49849 9.74921 4.33178C10.0689 4.16093 10.3816 3.97631 10.7068 3.81786C10.879 3.73382 11.076 3.70351 11.2524 3.62773C11.4756 3.53128 11.6878 3.41142 11.9068 3.30808C11.9702 3.27777 12.0418 3.25986 12.1107 3.24608C12.5833 3.15515 13.0573 3.06284 13.5312 2.97741C13.731 2.94159 13.9322 2.9099 14.1347 2.89612C14.599 2.86581 15.0633 2.83274 15.529 2.82861C15.8735 2.82586 16.2179 2.87132 16.5638 2.88923C16.634 2.89337 16.707 2.86168 16.7787 2.8603C17.1218 2.8603 17.4593 2.89612 17.7845 3.0215C17.8809 3.0587 17.9953 3.05044 18.1014 3.06559C18.2846 3.09315 18.4706 3.11106 18.6511 3.15377C18.917 3.21715 19.1816 3.29017 19.4406 3.37559C20.0785 3.58777 20.7123 3.80822 21.3474 4.02729C21.6065 4.11684 21.8682 4.20365 22.1231 4.3056C22.2664 4.36347 22.3946 4.4544 22.5351 4.52192C22.6756 4.58943 22.8244 4.64178 22.965 4.70929C23.3411 4.88841 23.709 5.08681 24.0906 5.25077C24.5315 5.43952 24.9848 5.59935 25.4326 5.77019C25.5897 5.83082 25.7453 5.89557 25.9066 5.94379C26.4549 6.10775 27.0074 6.24829 27.5764 6.32544C28.0945 6.39571 28.6084 6.49491 29.1347 6.49767C29.504 6.49767 29.8787 6.55829 30.2425 6.51833C30.6833 6.47011 31.1311 6.55002 31.572 6.40122C31.8903 6.29375 32.2416 6.28549 32.5737 6.21522C32.8189 6.16286 33.0573 6.07882 33.2998 6.01131C33.3838 5.98788 33.4706 5.96033 33.556 5.95619C33.5781 5.95619 33.6332 6.04713 33.6236 6.0802C33.5767 6.24415 33.523 6.40811 33.45 6.56242C33.2267 7.03914 33.0104 7.52136 32.7597 7.9843C32.5571 8.35906 32.3257 8.7228 32.0763 9.06862C31.8062 9.44338 31.5018 9.79196 31.211 10.1516C31.0939 10.2962 30.9713 10.4354 30.857 10.5828C30.8156 10.6365 30.7963 10.6779 30.8941 10.7289C31.2937 10.9397 31.6809 11.1711 32.0777 11.3888C32.3959 11.5624 32.7197 11.7291 33.0449 11.8931C33.5436 12.1439 34.0438 12.3905 34.5467 12.6343C34.7024 12.7101 34.8636 12.7776 35.0261 12.8396C35.456 13.0022 35.8859 13.1634 36.3185 13.3163C36.5197 13.388 36.7318 13.4321 36.9344 13.4982C37.0914 13.5492 37.2403 13.6305 37.3987 13.6746C37.8175 13.7944 38.2405 13.9005 38.6608 14.0149C38.8936 14.0783 39.1209 14.1609 39.3565 14.2119C39.7795 14.3028 40.2053 14.3855 40.6324 14.4572C41.0209 14.5219 41.4136 14.5619 41.8035 14.6253C42.8299 14.7892 43.8647 14.7741 44.8994 14.7644C45.2576 14.7617 45.6172 14.7561 45.9741 14.7258C46.2841 14.6997 46.5899 14.6321 46.8972 14.5867C47.0529 14.5633 47.2113 14.555 47.3656 14.526C47.6894 14.4654 48.0132 14.3965 48.337 14.3318C48.37 14.3249 48.4045 14.3249 48.4362 14.3194C48.5354 14.3015 48.5285 14.3538 48.4844 14.4048C48.3149 14.5977 48.1482 14.7933 47.9663 14.9738C47.4538 15.485 46.9385 15.9934 46.3502 16.4191C45.9134 16.7346 45.5029 17.0887 45.0551 17.3877C44.6748 17.6412 44.2601 17.841 43.8578 18.0601C43.5781 18.2116 43.2998 18.3715 43.0091 18.4968C42.6674 18.6443 42.3119 18.7559 41.9633 18.8854C41.8531 18.9267 41.7484 18.9818 41.6354 19.0135C41.1422 19.154 40.6475 19.2946 40.1501 19.4213C39.9765 19.4654 39.7933 19.4696 39.6142 19.4971C39.2725 19.5495 38.9308 19.6046 38.5891 19.6583C38.5671 19.6625 38.5436 19.6652 38.5216 19.6652C38.1813 19.6652 37.8396 19.6652 37.4993 19.6652C37.4993 19.6831 37.4993 19.7024 37.4993 19.7203L37.4938 19.7231ZM14.6872 3.89364C14.6872 3.89364 14.6872 3.88538 14.6872 3.88262C14.4874 3.8964 14.2849 3.89227 14.0892 3.92947C13.3287 4.07413 12.5668 4.21605 11.8379 4.48196C10.9823 4.79334 10.1501 5.15845 9.37858 5.64481C9.03276 5.86388 8.69382 6.09811 8.36591 6.34335C7.39043 7.07496 6.5362 7.93195 5.76464 8.87298C5.50148 9.19538 5.2645 9.53983 5.01788 9.87463C4.99308 9.9077 4.98205 9.95041 4.96552 9.98899C5.02063 9.98899 5.07712 9.9945 5.13223 9.98761C5.15566 9.98485 5.17494 9.95179 5.19699 9.93525C5.78668 9.5164 6.37362 9.09618 6.96607 8.68284C7.21407 8.50924 7.4607 8.33288 7.72523 8.18684C8.05315 8.00635 8.40724 7.8727 8.7324 7.69083C9.2036 7.42767 9.69823 7.22789 10.2094 7.06669C10.7205 6.90549 11.2358 6.75118 11.7539 6.6134C12.2086 6.49215 12.6577 6.35024 13.1358 6.33095C13.4541 6.31855 13.771 6.26344 14.0879 6.25518C14.5797 6.24278 15.0716 6.24966 15.5649 6.25655C15.7688 6.25931 15.9741 6.26758 16.1752 6.29651C16.5596 6.353 16.9426 6.415 17.3215 6.49629C17.779 6.59411 18.2323 6.71122 18.6869 6.82696C18.7682 6.84762 18.8454 6.89171 18.917 6.93718C18.9487 6.95785 18.979 7.00745 18.979 7.04465C18.979 7.06669 18.9225 7.10665 18.8881 7.1094C18.6015 7.13696 18.3122 7.14661 18.027 7.18381C17.6343 7.23478 17.2361 7.27336 16.8545 7.37119C16.2579 7.52412 15.6806 7.73906 15.1309 8.02701C14.5797 8.31635 14.0865 8.68146 13.6346 9.10445C13.6029 9.13338 13.596 9.18849 13.5767 9.2312C13.618 9.24498 13.658 9.2684 13.6993 9.27116C14.0204 9.29734 14.3441 9.30698 14.6652 9.34418C15.2342 9.40894 15.8073 9.43374 16.3612 9.61009C16.7332 9.72858 17.1287 9.77956 17.4951 9.90907C18.2433 10.175 18.9942 10.4368 19.7148 10.7661C21.1546 11.4219 22.4841 12.272 23.793 13.1565C24.4792 13.6208 25.1612 14.0948 25.8749 14.5136C26.8545 15.0896 27.8451 15.6531 28.8647 16.1532C29.7685 16.5969 30.7095 16.9689 31.6506 17.3299C32.181 17.5338 32.7418 17.6619 33.2943 17.8052C33.6814 17.9058 34.0741 17.9843 34.4681 18.0546C34.8181 18.1166 35.1708 18.1551 35.5235 18.1992C35.9052 18.2461 36.2868 18.3095 36.6712 18.326C37.0405 18.3425 37.4111 18.3108 37.7817 18.2971C37.998 18.2888 38.2199 18.3053 38.4265 18.2571C38.9019 18.1455 39.3979 18.2144 39.8732 18.0367C40.2369 17.9003 40.6475 17.9058 41.0168 17.7446C41.4411 17.5586 41.8889 17.4222 42.305 17.2183C42.8175 16.9661 43.3108 16.6754 43.8013 16.3819C43.9845 16.2717 44.1402 16.1146 44.2973 15.9658C44.3607 15.9066 44.3855 15.8253 44.2353 15.8239C44.0369 15.8225 43.8385 15.8033 43.6401 15.7909C43.1138 15.7578 42.5875 15.7302 42.0611 15.6861C41.6395 15.6503 41.2166 15.6131 40.8005 15.5442C40.0744 15.423 39.3496 15.2852 38.6291 15.1364C38.2116 15.051 37.7996 14.9408 37.3891 14.825C36.9275 14.6955 36.4618 14.5729 36.0126 14.4062C35.2342 14.1168 34.464 13.8082 33.6993 13.4872C33.2212 13.286 32.7418 13.0752 32.2899 12.8217C31.4053 12.3243 30.5373 11.7966 29.6679 11.2731C29.4337 11.1326 29.2174 10.9617 28.9969 10.7977C28.8454 10.6848 28.8481 10.6545 28.9873 10.5236C29.0576 10.4574 29.1416 10.4051 29.205 10.3334C29.486 10.0179 29.7713 9.70516 30.0358 9.37587C30.3251 9.01489 30.5965 8.63875 30.8625 8.26124C30.9258 8.1703 30.9382 8.04217 30.9741 7.93195C30.8749 7.92368 30.7757 7.90163 30.6778 7.9099C30.3513 7.93608 30.0261 7.9967 29.6996 7.99946C29.3097 8.00221 28.917 7.9719 28.5285 7.93195C28.1758 7.89475 27.8217 7.8479 27.4772 7.76523C26.9192 7.63159 26.3612 7.48554 25.8156 7.30643C25.1377 7.0846 24.4723 6.82696 23.8468 6.47424C23.5423 6.3034 23.2157 6.17526 22.9043 6.01544C22.1727 5.6393 21.4604 5.22321 20.7123 4.88703C20.146 4.63214 19.5439 4.442 18.9418 4.28356C18.337 4.12373 17.7156 4.01351 17.0942 3.92809C16.5679 3.85644 16.0319 3.83853 15.4987 3.82338C15.2287 3.81511 14.9586 3.86609 14.6886 3.89089L14.6872 3.89364Z" fill="#FCFDFD"/>
<path d="M29.1389 26.4991C28.6939 26.4646 28.2502 26.4109 27.8052 26.4026C27.407 26.3957 27.0309 26.2924 26.6451 26.2249C26.3365 26.1711 26.0251 26.1215 25.722 26.0458C25.2673 25.9314 24.8168 25.8005 24.369 25.6655C23.8868 25.5208 23.4032 25.3748 22.9292 25.2039C22.6454 25.102 22.3781 24.9518 22.1026 24.8264C21.7774 24.679 21.4453 24.544 21.1257 24.3842C20.7509 24.1968 20.3844 23.9929 20.018 23.7889C19.8719 23.7077 19.8623 23.6305 19.9628 23.4955C20.3596 22.9637 20.7578 22.4332 21.1533 21.9C21.4398 21.5142 21.7209 21.1257 22.0075 20.7385C22.1039 20.609 22.1136 20.485 21.9965 20.3624C21.4536 19.792 21.0444 19.1293 20.671 18.4417C20.5512 18.2227 20.4148 18.0119 20.299 17.79C20.2673 17.7308 20.299 17.6426 20.2784 17.5737C20.1971 17.2927 20.0979 17.0157 20.0235 16.7333C19.9766 16.5569 19.967 16.3709 19.9284 16.1918C19.8182 15.6848 19.803 15.1722 19.8182 14.6583C19.8209 14.5578 19.843 14.4586 19.8499 14.358C19.8526 14.3139 19.8457 14.2684 19.8402 14.2243C19.8361 14.1871 19.8264 14.1486 19.8196 14.1113C19.8705 14.1113 19.9339 14.0921 19.9697 14.1155C20.226 14.2863 20.474 14.4696 20.7275 14.6432C21.0913 14.8926 21.4577 15.1406 21.8256 15.3844C22.1067 15.5691 22.3905 15.7495 22.6785 15.9231C23.2296 16.2538 23.7793 16.5859 24.3373 16.9014C24.8016 17.1645 25.277 17.407 25.7482 17.655C26.0926 17.8355 26.4371 18.0146 26.7843 18.1869C27.4015 18.4941 28.0174 18.8069 28.6415 19.0976C29.0232 19.2753 29.4227 19.4131 29.8113 19.5743C30.1089 19.6983 30.4024 19.8333 30.6986 19.9587C30.8143 20.0069 30.9356 20.0427 31.0541 20.0868C31.3558 20.1984 31.6561 20.3142 31.9606 20.4203C32.1866 20.5002 32.4181 20.5649 32.6454 20.6407C33.1524 20.8074 33.6553 20.9907 34.1665 21.1395C34.6032 21.2662 35.0524 21.3571 35.496 21.4619C35.7689 21.5266 36.0403 21.5969 36.3158 21.6479C36.6341 21.7071 36.9565 21.7471 37.2762 21.7994C37.6344 21.8573 37.9912 21.9248 38.3494 21.9785C38.5988 22.0157 38.851 22.0557 39.1017 22.064C40.029 22.097 40.9576 22.1287 41.8862 22.1356C42.2844 22.1384 42.684 22.0777 43.0822 22.0502C43.1221 22.0474 43.1648 22.0722 43.2075 22.0846C43.1855 22.1177 43.1703 22.1604 43.14 22.1838C42.9278 22.3436 42.7157 22.5048 42.4952 22.655C42.2376 22.8314 41.9772 23.005 41.7099 23.1648C41.3544 23.3784 40.9948 23.5837 40.6311 23.7821C40.2673 23.9805 39.9022 24.1747 39.5288 24.3525C39.1761 24.5192 38.8151 24.6707 38.4514 24.8113C37.8479 25.0455 37.2431 25.2783 36.6327 25.4891C36.1794 25.6462 35.7165 25.773 35.2549 25.9025C34.9422 25.9893 34.6253 26.0568 34.3098 26.1339C34.2987 26.1367 34.2877 26.1477 34.2781 26.1463C33.8262 26.1036 33.4087 26.3007 32.9664 26.3296C32.5049 26.3585 32.0364 26.364 31.5817 26.4412C30.9549 26.5487 30.3266 26.5321 29.6983 26.5294C29.5123 26.5294 29.3263 26.5059 29.1403 26.4935C29.1403 26.4935 29.1403 26.4963 29.1403 26.4977L29.1389 26.4991ZM30.9314 25.4699C30.9314 25.463 30.9314 25.4547 30.9314 25.4478C31.0954 25.434 31.2593 25.423 31.4233 25.4037C31.9069 25.3459 32.3919 25.3004 32.8727 25.2205C33.3908 25.1337 33.9061 25.0207 34.42 24.9063C34.6198 24.8622 34.8099 24.7754 35.0069 24.719C35.2122 24.6611 35.4272 24.6349 35.6269 24.5633C36.0306 24.4186 36.4261 24.2478 36.827 24.0962C37.425 23.8702 37.983 23.5671 38.5299 23.2406C38.5727 23.2144 38.6099 23.1786 38.6498 23.1455C38.7132 23.0932 38.7091 23.0505 38.6278 23.0298C38.5134 23.0022 38.399 22.9733 38.2833 22.9595C37.7804 22.8975 37.2748 22.8493 36.7733 22.7818C36.258 22.7129 35.7399 22.644 35.2301 22.5434C34.6942 22.4387 34.1637 22.3051 33.636 22.1673C33.1138 22.0323 32.5917 21.8945 32.0791 21.7278C31.3847 21.5018 30.6917 21.2662 30.0124 21.0003C29.0411 20.62 28.0753 20.2246 27.1191 19.8071C26.5239 19.5467 25.9493 19.2422 25.372 18.9433C24.7631 18.6264 24.1637 18.2902 23.5575 17.9678C23.3867 17.8769 23.2103 17.7969 23.0312 17.7239C22.9774 17.7019 22.8741 17.6729 22.9099 17.8025C22.9471 17.9375 22.9857 18.0739 23.0463 18.1993C23.3687 18.873 23.7903 19.482 24.2808 20.0441C24.854 20.6999 25.5277 21.2373 26.269 21.6892C26.9221 22.0874 27.6137 22.4043 28.3467 22.6316C28.4583 22.666 28.5671 22.7225 28.6622 22.7887C28.7077 22.8204 28.7173 22.9003 28.7435 22.9581C28.6939 22.9719 28.6415 23.0022 28.5933 22.9953C28.1621 22.9375 27.7281 22.8879 27.2996 22.8052C26.9565 22.7391 26.6189 22.6371 26.2841 22.5352C25.7413 22.3684 25.1943 22.21 24.6845 21.9524C24.2051 21.7112 23.7297 21.4619 23.2558 21.2125C23.1221 21.1422 23.0133 21.105 22.9017 21.2593C22.5421 21.7595 22.1701 22.25 21.8118 22.7501C21.7181 22.881 21.6465 23.0312 21.5776 23.1786C21.528 23.2847 21.5859 23.3453 21.692 23.3784C21.8435 23.4252 21.9951 23.4721 22.1398 23.5341C22.6316 23.7449 23.1152 23.9777 23.6126 24.1734C23.9391 24.3015 24.2877 24.3745 24.6225 24.482C24.8733 24.5633 25.113 24.6845 25.3679 24.7438C25.7854 24.8402 26.1932 25.011 26.6369 24.9628C26.6506 24.9614 26.6699 24.9683 26.6809 24.978C26.9179 25.1957 27.2293 25.175 27.5118 25.2205C27.9458 25.2907 28.3867 25.3266 28.8248 25.3693C29.2243 25.4079 29.6253 25.4437 30.0276 25.4643C30.328 25.4795 30.6297 25.4671 30.9314 25.4671V25.4699Z" fill="#FCFDFD"/>
<path d="M12.9181 19.9063C12.8341 19.9972 12.7845 20.0964 12.7087 20.124C12.1672 20.3183 11.645 20.5539 11.127 20.806C10.8776 20.9272 10.6944 21.1119 10.4877 21.2731C10.2714 21.4439 10.0923 21.6616 9.89525 21.8586C9.73542 22.0185 9.75333 22.221 9.75333 22.4208C9.75333 22.6371 9.70511 22.6757 9.51636 22.5875C9.2408 22.4594 8.97488 22.3105 8.69795 22.1838C8.37279 22.035 8.03936 21.9041 7.71283 21.7567C7.51167 21.6644 7.32016 21.55 7.12038 21.4536C6.80486 21.302 6.48522 21.1587 6.1697 21.0072C6.04432 20.9465 5.92721 20.8666 5.80045 20.8088C5.58552 20.7096 5.36507 20.6241 5.14876 20.5263C5.11294 20.5098 5.08952 20.4643 5.0592 20.4326C5.09916 20.4202 5.13912 20.4009 5.18045 20.394C5.46979 20.3472 5.7605 20.3031 6.04984 20.2576C6.40393 20.2012 6.76766 20.1805 7.10798 20.0785C7.94154 19.8305 8.79577 19.6404 9.58938 19.2643C9.98618 19.0755 10.4037 18.9308 10.7991 18.7379C11.1449 18.5699 11.4701 18.3618 11.8076 18.1772C11.9344 18.1083 12.0625 18.016 12.1989 17.9981C12.3629 17.9774 12.5351 18.0229 12.7032 18.0422C12.9429 18.0697 13.1827 18.1014 13.4224 18.1262C13.5919 18.1441 13.7613 18.1496 13.9308 18.1662C13.9625 18.1689 13.9983 18.1854 14.0204 18.2075C14.0755 18.2598 14.1237 18.3205 14.1747 18.377C14.114 18.399 14.0548 18.4238 13.9928 18.4403C13.5974 18.5533 13.1923 18.6387 12.8107 18.7848C12.4634 18.9184 12.141 19.1168 11.8076 19.2863C11.8021 19.2891 11.7994 19.2932 11.7952 19.2987C11.7208 19.4075 11.645 19.5164 11.5706 19.6252C11.6878 19.6528 11.8035 19.6928 11.922 19.7052C12.2086 19.7355 12.4951 19.7506 12.7817 19.7823C12.8217 19.7864 12.8561 19.8498 12.9154 19.9077L12.9181 19.9063Z" fill="#035562"/>
<path d="M18.0532 21.3502C17.9457 21.6492 17.852 21.9192 17.7514 22.1851C17.6522 22.4483 17.5489 22.7115 17.4387 22.9705C17.2265 23.4734 17.0102 23.9735 16.7939 24.4737C16.776 24.515 16.7525 24.5591 16.7181 24.5866C16.6974 24.6032 16.6382 24.6018 16.6217 24.5839C16.3378 24.2766 15.9961 24.0562 15.6131 23.895C15.5525 23.8688 15.4988 23.8247 15.4368 23.8013C15.186 23.709 14.9339 23.6208 14.6817 23.5326C14.6611 23.5257 14.6349 23.5147 14.617 23.5216C14.216 23.6539 13.8316 23.461 13.439 23.4582C13.0986 23.4555 12.757 23.4541 12.4166 23.4748C12.0901 23.4954 11.7649 23.5381 11.4398 23.5836C11.229 23.6139 11.0223 23.6704 10.8129 23.7076C10.7757 23.7145 10.7096 23.7021 10.6958 23.6759C10.6696 23.6291 10.6489 23.5588 10.6655 23.5106C10.7688 23.213 10.9548 22.9622 11.1656 22.7335C11.6299 22.232 12.1673 21.8255 12.83 21.6354C13.348 21.4866 13.8785 21.3598 14.4131 21.2937C15.0413 21.2152 15.6779 21.189 16.3116 21.1862C16.8311 21.1835 17.3505 21.2469 17.8699 21.2854C17.9278 21.2896 17.9829 21.324 18.0518 21.3488L18.0532 21.3502Z" fill="#C62719"/>
<path d="M14.6873 3.8936C14.9573 3.8688 15.2288 3.8192 15.4974 3.82609C16.0306 3.84124 16.5652 3.85916 17.0929 3.9308C17.7143 4.01485 18.3357 4.12645 18.9405 4.28627C19.5426 4.44472 20.1447 4.63485 20.711 4.88974C21.4591 5.22592 22.1728 5.64202 22.9031 6.01815C23.2131 6.17798 23.541 6.30611 23.8455 6.47696C24.471 6.82967 25.1365 7.08732 25.8143 7.30914C26.3599 7.48688 26.9179 7.63292 27.4759 7.76795C27.8204 7.85061 28.1745 7.89746 28.5272 7.93466C28.9157 7.97462 29.3084 8.00493 29.6983 8.00217C30.0249 7.99942 30.35 7.93879 30.6765 7.91261C30.7744 7.90435 30.8736 7.92639 30.9728 7.93466C30.937 8.04626 30.9259 8.17302 30.8612 8.26395C30.5953 8.64284 30.3225 9.0176 30.0345 9.37858C29.7713 9.70787 29.4848 10.0206 29.2037 10.3361C29.1403 10.4078 29.0563 10.4601 28.986 10.5263C28.8468 10.6572 28.8441 10.6875 28.9956 10.8005C29.2147 10.9644 29.4324 11.1353 29.6666 11.2758C30.536 11.7994 31.404 12.3271 32.2886 12.8244C32.7405 13.0779 33.2186 13.2888 33.698 13.4899C34.4627 13.8109 35.2343 14.1209 36.0114 14.4089C36.4605 14.5756 36.9248 14.6996 37.3878 14.8277C37.7983 14.9421 38.2103 15.0537 38.6278 15.1391C39.3497 15.2879 40.0731 15.4257 40.7992 15.5469C41.2153 15.6158 41.6382 15.6544 42.0598 15.6889C42.5848 15.733 43.1125 15.7591 43.6388 15.7936C43.8372 15.806 44.0356 15.8239 44.234 15.8266C44.3842 15.828 44.358 15.9079 44.296 15.9686C44.1389 16.1174 43.9832 16.2744 43.8 16.3846C43.3095 16.6781 42.8149 16.9688 42.3037 17.221C41.889 17.4249 41.4412 17.5613 41.0155 17.7473C40.6476 17.9085 40.2357 17.903 39.8719 18.0394C39.3966 18.2171 38.902 18.1482 38.4252 18.2598C38.2186 18.308 37.9954 18.2915 37.7804 18.2998C37.4098 18.3136 37.0392 18.3452 36.6699 18.3287C36.2869 18.3122 35.9039 18.2502 35.5222 18.202C35.1695 18.1579 34.8154 18.1193 34.4669 18.0573C34.0728 17.987 33.6801 17.9085 33.293 17.8079C32.7405 17.6646 32.1797 17.5365 31.6493 17.3326C30.7082 16.9716 29.7672 16.5996 28.8634 16.1559C27.8438 15.6558 26.8546 15.0909 25.8736 14.5164C25.1599 14.0975 24.4779 13.6222 23.7917 13.1592C22.4828 12.2747 21.1519 11.4246 19.7135 10.7688C18.9929 10.4409 18.2406 10.1777 17.4939 9.91179C17.1274 9.7809 16.7319 9.7313 16.3599 9.61281C15.8061 9.43645 15.2329 9.41165 14.6639 9.34689C14.3428 9.31107 14.0204 9.30005 13.698 9.27387C13.6567 9.27111 13.6168 9.24769 13.5754 9.23391C13.5947 9.1912 13.6016 9.13609 13.6333 9.10716C14.0852 8.6828 14.5785 8.31768 15.1296 8.02973C15.6793 7.74177 16.2566 7.52683 16.8532 7.3739C17.2348 7.27608 17.633 7.2375 18.0257 7.18652C18.3109 7.14932 18.6002 7.13967 18.8868 7.11212C18.9212 7.10936 18.9777 7.06941 18.9777 7.04736C18.9777 7.01016 18.9474 6.96056 18.9157 6.93989C18.8441 6.89443 18.7669 6.85034 18.6856 6.82967C18.2324 6.71394 17.7791 6.59682 17.3203 6.499C16.9414 6.41771 16.557 6.35571 16.1739 6.29922C15.9728 6.26891 15.7675 6.26202 15.5636 6.25927C15.0717 6.25238 14.5785 6.24549 14.0866 6.25789C13.7683 6.26616 13.4514 6.32127 13.1345 6.33367C12.6578 6.35296 12.2073 6.49487 11.7526 6.61611C11.2346 6.75389 10.7193 6.90821 10.2081 7.06941C9.69694 7.23061 9.20232 7.43039 8.73111 7.69355C8.40458 7.87541 8.05048 8.00906 7.72395 8.18955C7.45941 8.33422 7.21279 8.51195 6.96478 8.68555C6.37233 9.10027 5.7854 9.52049 5.1957 9.93796C5.17228 9.9545 5.15437 9.98619 5.13095 9.99032C5.07583 9.99721 5.01934 9.9917 4.96423 9.9917C4.98214 9.95312 4.99317 9.91041 5.01659 9.87734C5.26321 9.54254 5.50019 9.19809 5.76335 8.87569C6.53354 7.93466 7.38914 7.07767 8.36462 6.34607C8.69253 6.09944 9.03009 5.86522 9.37729 5.64753C10.1489 5.15979 10.981 4.79605 11.8367 4.48467C12.5655 4.21876 13.3288 4.07685 14.088 3.93218C14.2836 3.89498 14.4861 3.90049 14.6859 3.88533C14.6859 3.88947 14.6859 3.8936 14.6859 3.89636L14.6873 3.8936Z" fill="#D4A501"/>
<path d="M30.9314 25.4698C30.6296 25.4698 30.3279 25.4822 30.0275 25.467C29.6266 25.4463 29.2257 25.4105 28.8247 25.3719C28.3866 25.3292 27.9457 25.2948 27.5117 25.2231C27.2279 25.1763 26.9165 25.197 26.6809 24.9807C26.6699 24.971 26.6506 24.9627 26.6368 24.9655C26.1931 25.0137 25.7853 24.8415 25.3678 24.7464C25.113 24.6872 24.8732 24.5659 24.6225 24.4847C24.2877 24.3772 23.9391 24.3042 23.6125 24.176C23.1152 23.9804 22.6316 23.7475 22.1397 23.5367C21.995 23.4747 21.8435 23.4265 21.6919 23.381C21.5858 23.348 21.5279 23.2874 21.5775 23.1813C21.6464 23.0338 21.7181 22.885 21.8118 22.7528C22.17 22.2526 22.5434 21.7621 22.9016 21.262C23.0132 21.1077 23.122 21.1449 23.2557 21.2152C23.731 21.4645 24.2064 21.7139 24.6845 21.955C25.1942 22.2127 25.7412 22.3711 26.2841 22.5378C26.6189 22.6412 26.9564 22.7417 27.2995 22.8079C27.7266 22.8905 28.1606 22.9401 28.5933 22.998C28.6401 23.0049 28.6925 22.9746 28.7434 22.9608C28.7173 22.9029 28.7076 22.8217 28.6621 22.7913C28.5671 22.7252 28.4582 22.6687 28.3466 22.6343C27.6136 22.4083 26.922 22.0914 26.2689 21.6919C25.5277 21.24 24.8539 20.7026 24.2808 20.0468C23.7903 19.4847 23.3687 18.8757 23.0463 18.2019C22.9856 18.0766 22.9471 17.9401 22.9099 17.8051C22.874 17.6756 22.9788 17.7045 23.0311 17.7266C23.2089 17.801 23.3866 17.8795 23.5574 17.9705C24.1637 18.2929 24.763 18.629 25.372 18.9459C25.9479 19.2449 26.5238 19.5508 27.119 19.8098C28.0752 20.2273 29.041 20.6241 30.0124 21.003C30.6916 21.2689 31.3847 21.5045 32.0791 21.7304C32.5916 21.8972 33.1138 22.0349 33.636 22.17C34.165 22.3064 34.6955 22.44 35.2301 22.5461C35.7399 22.6467 36.2579 22.7156 36.7732 22.7845C37.2761 22.852 37.7804 22.9016 38.2832 22.9622C38.399 22.976 38.5133 23.0049 38.6277 23.0325C38.709 23.0517 38.7131 23.0958 38.6497 23.1482C38.6098 23.1799 38.574 23.2171 38.5299 23.2433C37.9829 23.5684 37.4249 23.8729 36.8269 24.0989C36.426 24.2504 36.0306 24.4213 35.6269 24.5659C35.4271 24.6376 35.2122 24.6638 35.0069 24.7216C34.8098 24.7781 34.6197 24.8649 34.4199 24.909C33.906 25.0234 33.3921 25.1363 32.8727 25.2231C32.3932 25.3031 31.9068 25.3485 31.4232 25.4064C31.2607 25.4257 31.0953 25.4353 30.9314 25.4505C30.9314 25.4574 30.9314 25.4656 30.9314 25.4725V25.4698Z" fill="#D4A501"/>
</g>
<defs>
<clipPath id="clip0_18297_87410">
<rect width="52.9278" height="40" fill="white"/>
</clipPath>
</defs>
</svg>
