<svg width="200" height="30" viewBox="0 0 200 30" fill="none" xmlns="http://www.w3.org/2000/svg">
<g clip-path="url(#clip0_18297_87512)">
<path d="M80.3508 29.9096C80.3667 29.8046 80.3984 29.7015 80.3984 29.5965C80.4004 22.0904 80.3984 14.5863 80.4004 7.08026C80.4004 7.05647 80.4043 7.0307 80.4083 6.97719H81.8849C82.0633 7.70857 82.2437 8.44986 82.4399 9.25656C82.7432 8.98105 82.9949 8.78285 83.209 8.54896C83.7877 7.91867 84.4953 7.4727 85.2703 7.13972C86.0611 6.80079 86.8897 6.58672 87.7677 6.6224C88.9074 6.66799 89.942 7.00692 90.8954 7.63523C91.7735 8.214 92.3344 9.03655 92.8081 9.93839C93.3036 10.8819 93.6029 11.8848 93.7714 12.9353C93.9398 13.9778 93.9934 15.0244 93.9517 16.0749C93.8804 17.8944 93.486 19.6327 92.5584 21.2223C91.9241 22.3104 91.0242 23.1052 89.8687 23.6265C89.0283 24.0051 88.1502 24.1775 87.2425 24.0883C86.7271 24.0368 86.2118 23.8941 85.7222 23.7197C85.2624 23.5552 84.8085 23.3371 84.4061 23.0636C83.8155 22.6612 83.2744 22.1875 82.7115 21.7475C82.6421 21.694 82.5648 21.6484 82.4895 21.6008C82.4617 21.6127 82.432 21.6246 82.4042 21.6345C82.3983 21.9537 82.3904 22.2728 82.3904 22.5919C82.3904 22.7267 82.4102 22.8614 82.4102 22.9962C82.4102 25.1943 82.4042 27.3924 82.4003 29.5905C82.4003 29.6976 82.3884 29.8026 82.3805 29.9077H80.3508V29.9096ZM82.3943 15.3217H82.4042C82.4042 16.5446 82.3983 17.7656 82.4102 18.9885C82.4102 19.149 82.4637 19.3413 82.5628 19.4642C83.2942 20.3819 84.1207 21.2044 85.1355 21.8149C85.9898 22.3302 86.9293 22.5859 87.9203 22.467C89.4406 22.2827 90.4732 21.4066 91.1194 20.0548C91.716 18.8061 91.9023 17.4663 91.9261 16.1046C91.9399 15.2503 91.8587 14.396 91.8369 13.5398C91.8091 12.4734 91.494 11.4824 91.0401 10.533C90.3939 9.17926 89.282 8.45977 87.8014 8.30715C86.8956 8.214 86.0393 8.42013 85.2406 8.85817C84.196 9.43098 83.3992 10.2793 82.6322 11.1653C82.4459 11.3813 82.3824 11.5994 82.3864 11.8768C82.4003 13.0245 82.3924 14.1741 82.3924 15.3217H82.3943Z" fill="white"/>
<path d="M200 20.7546C199.97 20.7724 199.919 20.7843 199.911 20.8081C199.536 21.9716 198.724 22.7565 197.675 23.3213C196.916 23.7316 196.097 23.9556 195.237 24.0547C194.399 24.1518 193.574 24.1003 192.752 23.9179C191.868 23.7237 191.037 23.4046 190.29 22.9031C189.662 22.4809 189.059 22.0171 188.603 21.3948C188.46 21.2005 188.288 21.0281 188.141 20.8378C188.112 20.8002 188.11 20.6911 188.139 20.6693C188.558 20.3443 188.992 20.039 189.402 19.7061C189.535 19.597 189.572 19.6268 189.66 19.7398C190.288 20.5702 191.059 21.2481 191.955 21.7833C192.589 22.1618 193.283 22.3759 194.018 22.479C194.742 22.58 195.441 22.5364 196.121 22.255C197.13 21.8348 197.828 21.1411 198.099 20.0648C198.222 19.5772 198.224 19.0777 198.077 18.608C197.913 18.0847 197.578 17.6526 197.102 17.3573C196.494 16.9768 195.858 16.6557 195.178 16.4039C193.85 15.9104 192.528 15.3971 191.233 14.8242C190.682 14.5804 190.173 14.2058 189.711 13.8114C189.17 13.3496 188.831 12.7312 188.675 12.0276C188.443 10.983 188.591 10.0019 189.109 9.0604C189.521 8.31317 190.11 7.77404 190.849 7.36376C191.576 6.95942 192.359 6.77112 193.178 6.67202C193.973 6.57688 194.75 6.63039 195.529 6.81076C197.047 7.16357 198.238 8.00396 199.225 9.17338C199.384 9.36168 199.54 9.55394 199.679 9.72043C199.253 10.0356 198.864 10.3051 198.498 10.6044C198.341 10.7333 198.26 10.7194 198.143 10.5707C197.622 9.91864 197.027 9.34186 196.317 8.89193C195.729 8.5193 195.083 8.331 194.387 8.29731C194.068 8.28145 193.751 8.24776 193.433 8.25172C192.335 8.26361 191.499 8.72147 190.966 9.70259C190.611 10.3587 190.526 11.0563 190.768 11.7402C190.885 12.0731 191.172 12.3764 191.447 12.6202C192.026 13.1355 192.762 13.3872 193.473 13.6667C194.692 14.1444 195.917 14.6062 197.124 15.1097C197.873 15.4208 198.539 15.8787 199.122 16.4456C199.455 16.7686 199.725 17.1393 199.883 17.5813C199.901 17.6289 199.96 17.6606 200.002 17.7002V20.7526L200 20.7546Z" fill="white"/>
<path d="M2.7452 22.584C2.6243 22.5087 2.55493 22.4591 2.48159 22.4195C1.98409 22.144 1.49056 21.8665 1.10406 21.4344C0.354838 20.5999 0.293394 19.5475 0.981169 18.5445C1.47669 17.8231 2.10103 17.2384 2.91963 16.8796C2.94143 16.8697 2.95729 16.8499 3.00485 16.8082C2.92161 16.7389 2.85224 16.6655 2.76899 16.612C1.64912 15.8945 1.06243 14.8123 0.769089 13.5735C0.60656 12.8897 0.604578 12.1782 0.739358 11.4686C0.993062 10.1307 1.53218 8.94541 2.5906 8.05744C3.45875 7.33003 4.49338 6.90587 5.60334 6.68982C6.30895 6.55306 7.02646 6.56297 7.74991 6.6145C8.87374 6.69378 9.88856 7.06047 10.8221 7.64517C12.1759 8.4935 13.0103 9.7303 13.3691 11.2704C13.4781 11.7381 13.5217 12.2317 13.5177 12.7133C13.49 15.1909 12.1025 17.0857 9.46836 17.7973C8.47336 18.0669 7.45657 18.1283 6.43184 18.0887C6.15039 18.0768 5.86497 18.0371 5.59541 17.9598C5.07809 17.8112 4.24761 18.4177 4.22581 18.9231C4.21193 19.27 4.35266 19.5871 4.6797 19.7298C5.02259 19.8785 5.39324 19.9974 5.7619 20.043C6.5686 20.1441 7.38323 20.1936 8.19389 20.259C8.6577 20.2967 9.12348 20.3066 9.5853 20.3621C10.1284 20.4255 10.6735 20.5008 11.2106 20.6118C11.7259 20.7189 12.2432 20.8437 12.7407 21.0181C13.9538 21.4423 14.6078 22.356 14.7961 23.581C14.8873 24.1815 14.9289 24.8158 14.8378 25.4124C14.596 26.9941 13.6941 28.1298 12.2432 28.8235C11.1828 29.3309 10.059 29.6441 8.88563 29.7115C7.86091 29.769 6.83024 29.7729 5.80353 29.7571C4.95322 29.7432 4.1049 29.6619 3.28234 29.4201C2.17041 29.0931 1.12388 28.663 0.42421 27.67C0.156632 27.2914 -0.00986154 26.889 0.00995908 26.4133C0.0297797 25.9297 0.0357259 25.4441 0.00995908 24.9625C-0.0158077 24.5205 0.158614 24.1795 0.440067 23.8644C1.02279 23.2123 1.77598 22.8555 2.60448 22.6256C2.63223 22.6177 2.65998 22.6117 2.75115 22.5879L2.7452 22.584ZM7.11565 9.62129C6.22967 9.62922 5.54388 9.85914 5.04638 10.5013C4.45969 11.2605 4.30311 12.1147 4.4914 13.0463C4.60834 13.629 4.86006 14.1206 5.34369 14.4932C6.34661 15.2642 7.7955 15.2642 8.83806 14.5963C9.41683 14.2256 9.78351 13.6865 9.85486 12.9948C9.89252 12.6182 9.84892 12.2356 9.86279 11.8571C9.87865 11.3873 9.68242 11.0028 9.41088 10.6421C8.81032 9.84328 7.93424 9.68472 7.11367 9.62129H7.11565ZM6.94916 27.0258C7.26629 27 7.5854 26.9802 7.90253 26.9505C8.21768 26.9207 8.53481 26.893 8.84599 26.8395C9.48422 26.7305 10.0769 26.4946 10.6041 26.114C11.0877 25.7652 11.3236 25.3014 11.2522 24.6949C11.1987 24.2449 10.6675 23.7712 10.0808 23.7098C9.28997 23.6265 8.49517 23.5651 7.70036 23.5096C7.08988 23.466 6.47743 23.4402 5.86497 23.4125C5.67667 23.4046 5.46658 23.3629 5.30008 23.4244C4.61825 23.6781 3.98994 24.023 3.67677 24.7246C3.59551 24.907 3.57767 25.1488 3.61533 25.347C3.74615 26.0328 4.22184 26.4331 4.84817 26.667C5.52207 26.9187 6.22571 27.0297 6.94916 27.0278V27.0258Z" fill="white"/>
<path d="M39.9048 0.388916H43.867V8.42816C43.8908 8.43807 43.9126 8.446 43.9364 8.45591C44.1147 8.28347 44.2931 8.11301 44.4715 7.94057C45.3654 7.06847 46.4338 6.65025 47.6924 6.61854C49.1175 6.58286 50.38 6.98126 51.5197 7.81174C52.1877 8.29734 52.6416 8.96728 53.0697 9.65109C53.696 10.6481 54.0488 11.7481 54.2669 12.8997C54.473 13.9878 54.5007 15.0839 54.4512 16.18C54.366 18.0451 53.8823 19.7953 52.8318 21.375C52.0846 22.4988 51.0678 23.2817 49.835 23.7792C49.3751 23.9655 48.8519 24.0012 48.3564 24.1003C47.6725 24.2391 47.0046 24.1142 46.3525 23.9378C45.6528 23.7495 44.9968 23.4482 44.422 23.0023C44.0949 22.7486 43.7936 22.4631 43.4745 22.1995C43.419 22.1539 43.3378 22.1381 43.2506 22.1004C43.1336 22.6237 43.0266 23.1152 42.9156 23.6068C42.8839 23.7436 42.8185 23.8169 42.648 23.8149C41.7402 23.805 40.8324 23.809 39.9266 23.8109C39.7641 23.8109 39.7185 23.7693 39.7403 23.587C39.7879 23.2183 39.7859 22.8417 39.8077 22.4691C39.8533 21.6426 39.9009 20.818 39.9465 19.9915C39.9524 19.8766 39.9504 19.7616 39.9504 19.6466C39.9504 13.7421 39.9504 7.83552 39.9504 1.93096C39.9504 1.57815 39.9584 1.22336 39.9544 0.870557C39.9524 0.71992 39.9227 0.569284 39.9029 0.39288L39.9048 0.388916ZM43.8372 15.2702C43.8372 15.2702 43.8491 15.2702 43.8531 15.2702C43.8531 16.2712 43.8531 17.2701 43.8531 18.2711C43.8531 19.389 43.8412 19.4048 44.7629 20.053C45.5498 20.6079 46.4338 20.9013 47.405 20.7249C49.1769 20.4058 50.0134 18.9866 50.2532 17.5417C50.3265 17.1056 50.3721 16.6616 50.3979 16.2216C50.4316 15.6607 50.4673 15.0958 50.4355 14.5369C50.4038 14.0156 50.2651 13.5003 50.2076 12.979C50.1244 12.2258 49.8033 11.5757 49.3196 11.0187C48.7647 10.3785 48.0828 9.95435 47.181 9.90876C46.7667 9.88696 46.3624 9.86912 45.9759 9.98804C45.2287 10.218 44.5666 10.6124 43.9978 11.1495C43.9106 11.2328 43.8432 11.3854 43.8432 11.5063C43.8313 12.7609 43.8372 14.0156 43.8372 15.2683V15.2702Z" fill="white"/>
<path d="M65.3406 12.852C65.3406 12.5309 65.3367 12.2118 65.3406 11.8907C65.3466 11.3595 65.2673 10.8363 64.9482 10.4062C64.7916 10.1941 64.5339 10.0097 64.2842 9.92055C63.6816 9.70649 63.0454 9.6173 62.4032 9.67874C61.5767 9.75802 60.7938 9.97407 60.1555 10.539C59.8444 10.8145 59.553 11.1157 59.2716 11.423C59.1546 11.5518 59.0773 11.5399 58.9485 11.4586C58.229 11.0067 57.5095 10.5508 56.7781 10.1168C56.461 9.93046 56.4253 9.78775 56.677 9.51621C56.903 9.27242 57.1032 9.00484 57.3351 8.76699C57.7672 8.32697 58.2211 7.91669 58.7661 7.6055C59.6244 7.11593 60.548 6.7988 61.5152 6.6997C62.3913 6.61051 63.2832 6.6442 64.1672 6.67988C65.0235 6.71556 65.8342 6.98314 66.6111 7.33396C67.9589 7.94047 68.726 9.02466 69.0887 10.4121C69.1799 10.7609 69.2037 11.1336 69.2037 11.4963C69.2136 14.9748 69.2037 18.4513 69.2195 21.9299C69.2215 22.4928 69.3365 23.0557 69.3999 23.6186C69.4058 23.6662 69.3999 23.7157 69.3999 23.7791C69.3464 23.7871 69.2929 23.8009 69.2393 23.8009C68.1175 23.8009 66.9956 23.793 65.8738 23.8029C65.6776 23.8029 65.6082 23.7395 65.5705 23.5591C65.4932 23.1825 65.3941 22.8099 65.295 22.4016C65.1702 22.4353 65.0532 22.4412 64.962 22.4928C64.5458 22.7286 64.1593 23.024 63.7213 23.2083C63.1108 23.466 62.4785 23.7038 61.8324 23.8346C61.1922 23.9635 60.5202 24.019 59.8681 23.9833C58.8533 23.9298 57.9039 23.6463 57.0992 22.9566C56.5502 22.4848 56.2469 21.8902 55.9754 21.25C55.6424 20.4612 55.6345 19.6307 55.7078 18.816C55.8049 17.7398 56.2588 16.7943 57.008 15.9837C58.0744 14.8321 59.4143 14.186 60.9107 13.8133C61.8601 13.5755 62.8115 13.3396 63.7669 13.1275C64.2069 13.0304 64.6588 12.9908 65.1048 12.9214C65.1741 12.9115 65.2415 12.8778 65.3347 12.8481L65.3406 12.852ZM65.1543 15.5338C64.2445 15.7379 63.3625 15.9143 62.4944 16.1343C61.6778 16.3405 60.9286 16.7012 60.3656 17.3454C59.7928 17.9994 59.4797 18.7427 59.6917 19.6366C59.8364 20.2471 60.1992 20.6495 60.7918 20.8536C61.1922 20.9924 61.6044 20.9963 62.0068 20.921C63.1802 20.703 64.1752 20.1361 65.0275 19.3155C65.1087 19.2382 65.1484 19.0836 65.1503 18.9647C65.1622 18.2274 65.1563 17.4881 65.1563 16.7507C65.1563 16.3662 65.1563 15.9817 65.1563 15.5318L65.1543 15.5338Z" fill="white"/>
<path d="M37.7147 15.0938C37.689 16.731 37.5244 18.0729 37.0884 19.3751C36.7376 20.4216 36.1866 21.3532 35.4294 22.1559C34.7238 22.9032 33.8378 23.3888 32.8825 23.7475C32.2819 23.9715 31.6476 24.027 31.0173 24.1122C30.0957 24.2371 29.2077 24.0706 28.3515 23.8268C26.4467 23.2877 25.0652 22.0865 24.2189 20.2928C23.8363 19.4841 23.5866 18.6378 23.4201 17.7617C23.2437 16.8341 23.1347 15.8985 23.1842 14.9551C23.2199 14.2752 23.2972 13.5954 23.4122 12.9235C23.5073 12.3685 23.6599 11.8175 23.8343 11.2803C24.1079 10.438 24.5261 9.66496 25.0751 8.96331C25.6578 8.21805 26.3674 7.61154 27.2415 7.25279C27.8599 6.99909 28.518 6.77908 29.176 6.69979C29.9768 6.60465 30.8053 6.59474 31.606 6.68988C33.1679 6.8762 34.5315 7.51839 35.5919 8.71357C36.3788 9.60153 36.9338 10.6203 37.2291 11.7659C37.3817 12.3566 37.4908 12.9611 37.576 13.5676C37.6592 14.1623 37.687 14.7648 37.7167 15.0938H37.7147ZM30.393 20.7031C30.4762 20.7031 30.5595 20.709 30.6407 20.7031C30.72 20.6951 30.7993 20.6674 30.8786 20.6555C31.8339 20.5247 32.5534 20.0609 32.9875 19.1908C33.2927 18.5763 33.487 17.9302 33.5246 17.2404C33.5583 16.624 33.6079 16.0076 33.6198 15.3911C33.6297 14.9036 33.594 14.414 33.5722 13.9244C33.5385 13.2188 33.4196 12.5271 33.1679 11.865C32.6823 10.5906 31.4574 9.91866 30.0778 10.0594C29.3029 10.1387 28.6904 10.4736 28.2266 11.0841C27.8698 11.5539 27.628 12.0771 27.5269 12.6579C27.4179 13.2763 27.2732 13.8986 27.2534 14.523C27.2237 15.4625 27.2316 16.404 27.3803 17.3415C27.4873 18.0213 27.6399 18.6794 27.9868 19.272C28.5219 20.1818 29.3266 20.6714 30.397 20.705L30.393 20.7031Z" fill="white"/>
<path d="M135.016 23.805C135.016 23.5969 135.016 23.4264 135.016 23.254C135.022 19.5793 135.044 15.9045 135.022 12.2298C135.018 11.5123 134.915 10.7769 134.727 10.0832C134.491 9.20911 133.839 8.69576 132.941 8.49359C131.666 8.20619 130.545 8.55503 129.502 9.26659C128.642 9.85328 127.92 10.5866 127.272 11.3953C127.205 11.4786 127.183 11.6193 127.183 11.7343C127.183 15.3515 127.183 18.9688 127.187 22.586C127.187 22.9309 127.195 23.2758 127.181 23.6187C127.179 23.6821 127.1 23.7951 127.052 23.7951C126.444 23.807 125.833 23.803 125.231 23.803V6.97136H127.108V9.52029C127.128 9.53219 127.149 9.5421 127.169 9.55399C127.235 9.49255 127.302 9.43507 127.363 9.37164C127.938 8.77306 128.57 8.23988 129.262 7.77806C130.105 7.21516 131.024 6.8128 132.029 6.70577C133.294 6.57099 134.481 6.78703 135.464 7.6968C135.928 8.1269 136.275 8.62639 136.548 9.18533C136.796 9.68877 136.8 9.68481 137.19 9.2983C137.971 8.52134 138.808 7.81176 139.795 7.30633C140.748 6.81676 141.765 6.59675 142.839 6.67802C143.765 6.74739 144.599 7.05263 145.281 7.69482C145.747 8.13285 146.027 8.69179 146.233 9.28839C146.609 10.3785 146.673 11.5083 146.671 12.648C146.665 16.2653 146.667 19.8825 146.667 23.4998C146.667 23.589 146.667 23.6762 146.667 23.7852H144.748C144.748 23.7079 144.748 23.6207 144.748 23.5355C144.748 19.8686 144.762 16.2018 144.736 12.535C144.73 11.7303 144.629 10.9176 144.477 10.1268C144.334 9.39939 143.634 8.68981 142.804 8.52332C142.253 8.41232 141.716 8.35286 141.168 8.44602C140.189 8.61647 139.377 9.11992 138.62 9.73634C138.053 10.2001 137.535 10.7115 137.103 11.3022C137.014 11.4251 136.955 11.5995 136.955 11.7501C136.951 15.6627 136.955 19.5753 136.961 23.4879C136.961 23.805 136.959 23.807 136.634 23.807C136.108 23.807 135.581 23.807 135.012 23.807L135.016 23.805Z" fill="white"/>
<path d="M16.9347 0.375C17.0833 0.375 17.2479 0.375 17.4104 0.375C18.4827 0.375 19.555 0.375 20.6273 0.375C20.9464 0.375 20.9484 0.375 20.9484 0.704022C20.9523 8.02972 20.9563 15.3534 20.9603 22.6791C20.9603 23.0458 20.9603 23.4125 20.9603 23.7911H16.9347V0.375Z" fill="white"/>
<path d="M76.6226 23.797H72.6346V0.390869H76.6226V23.797Z" fill="white"/>
<path d="M97.6463 10.981C97.1429 10.6837 96.6454 10.3903 96.1241 10.0831C96.4294 9.65699 96.691 9.22291 97.02 8.8483C97.3748 8.44595 97.7593 8.0535 98.1894 7.73439C98.9268 7.18734 99.785 6.87814 100.701 6.78101C101.367 6.71164 102.045 6.64029 102.709 6.68984C104.257 6.8048 105.644 7.33797 106.683 8.53712C107.216 9.15156 107.517 9.89285 107.523 10.7194C107.551 14.3505 107.557 17.9816 107.6 21.6108C107.608 22.3303 107.745 23.0498 107.826 23.8049C107.642 23.8049 107.416 23.8049 107.192 23.8049C106.821 23.8049 106.449 23.8129 106.078 23.799C105.999 23.795 105.864 23.7177 105.852 23.6543C105.769 23.2242 105.705 22.7901 105.646 22.358C105.614 22.1242 105.598 21.8883 105.573 21.6167C105.501 21.6584 105.428 21.6861 105.376 21.7357C104.601 22.4591 103.717 23.0339 102.762 23.47C102.118 23.7653 101.408 23.9972 100.707 24.0765C99.565 24.2053 98.4174 24.1201 97.3827 23.5057C96.7108 23.1073 96.1895 22.5701 95.8129 21.8903C95.2996 20.9686 95.145 19.9657 95.2619 18.941C95.361 18.0689 95.6821 17.2542 96.243 16.5486C97.0933 15.4783 98.1954 14.7469 99.4659 14.3069C100.728 13.8709 102.027 13.5379 103.319 13.189C104.011 13.0027 104.722 12.8877 105.42 12.7232C105.503 12.7034 105.616 12.5686 105.618 12.4874C105.626 11.75 105.697 11.0048 105.483 10.2833C105.424 10.0792 105.321 9.877 105.198 9.70456C104.762 9.09408 104.191 8.64812 103.442 8.51334C102.827 8.40234 102.199 8.31117 101.577 8.31117C100.608 8.31117 99.7354 8.64613 99.01 9.30418C98.5482 9.72239 98.1181 10.1723 97.8208 10.7293C97.7791 10.8066 97.7177 10.874 97.6424 10.979L97.6463 10.981ZM105.573 14.3446C105.485 14.3545 105.412 14.3565 105.343 14.3723C104.677 14.5249 104.011 14.6775 103.345 14.8361C101.971 15.1612 100.635 15.5972 99.3767 16.2354C97.7117 17.0778 96.8198 18.8538 97.4263 20.6515C97.8426 21.8883 98.6909 22.3858 99.7533 22.5126C100.695 22.6256 101.612 22.4096 102.445 21.9478C103.521 21.3512 104.492 20.6059 105.37 19.7437C105.527 19.5891 105.598 19.4266 105.598 19.2026C105.59 17.6526 105.594 16.1046 105.594 14.5547C105.594 14.4912 105.583 14.4278 105.575 14.3446H105.573Z" fill="white"/>
<path d="M162.529 19.7258C161.73 21.2976 160.747 22.6851 159.112 23.468C158.41 23.8049 157.661 24.015 156.874 24.0507C156.597 24.0646 156.321 24.0983 156.044 24.0963C154.716 24.0844 153.499 23.7058 152.409 22.9566C151.451 22.2986 150.783 21.3908 150.254 20.37C149.886 19.6604 149.697 18.8914 149.523 18.1224C149.414 17.6427 149.348 17.1472 149.319 16.6556C149.281 16.0194 149.281 15.3792 149.297 14.741C149.309 14.2256 149.331 13.7043 149.418 13.1969C149.513 12.64 149.679 12.0949 149.83 11.5479C150.092 10.6024 150.559 9.76003 151.154 8.98505C151.652 8.33691 152.25 7.81167 152.972 7.40535C153.648 7.02479 154.361 6.79091 155.118 6.68586C155.806 6.59072 156.498 6.60459 157.191 6.71559C157.814 6.81469 158.414 6.96136 158.981 7.23092C160.004 7.71851 160.745 8.4935 161.288 9.48056C161.786 10.3844 162.119 11.3496 162.262 12.3605C162.388 13.2604 162.398 14.1741 162.466 15.0819C162.482 15.294 162.392 15.3376 162.19 15.3376C158.644 15.3316 155.096 15.3336 151.55 15.3336C151.469 15.3336 151.39 15.3336 151.253 15.3336C151.297 15.954 151.315 16.5545 151.388 17.1472C151.453 17.6724 151.558 18.1977 151.689 18.711C152.042 20.1064 152.779 21.252 154.06 21.9676C154.49 22.2074 155.009 22.3184 155.503 22.4155C156.228 22.5582 156.964 22.5146 157.675 22.3105C158.202 22.1578 158.684 21.8922 159.088 21.5275C159.512 21.143 159.927 20.7407 160.281 20.2947C160.555 19.9498 160.735 19.5276 160.945 19.1332C161.011 19.0083 161.054 18.933 161.213 19.0202C161.645 19.2601 162.085 19.488 162.531 19.7258H162.529ZM151.291 13.855C151.376 13.8609 151.434 13.8689 151.489 13.8689C154.45 13.8689 157.409 13.8689 160.371 13.8748C160.533 13.8748 160.569 13.8252 160.553 13.6766C160.482 13.074 160.458 12.4655 160.343 11.8709C160.093 10.5727 159.399 9.54597 158.297 8.80468C158.097 8.6699 157.861 8.57476 157.629 8.50143C157.027 8.31115 156.405 8.29331 155.774 8.29331C155.178 8.29331 154.625 8.42611 154.107 8.70161C152.9 9.3438 152.143 10.3487 151.723 11.6351C151.489 12.3506 151.303 13.0701 151.293 13.855H151.291Z" fill="white"/>
<path d="M177.488 23.7991H175.549C175.545 23.7237 175.535 23.6544 175.535 23.585C175.535 20.051 175.541 16.515 175.528 12.981C175.526 12.2694 175.454 11.5578 175.399 10.8463C175.349 10.2061 175.115 9.62136 174.659 9.17738C174.406 8.92962 174.049 8.76511 173.712 8.63033C173.109 8.38852 172.461 8.33897 171.827 8.41231C171.137 8.49159 170.489 8.73538 169.879 9.08224C168.8 9.6947 167.922 10.5291 167.116 11.4488C167.064 11.5083 167.034 11.6054 167.036 11.6867C167.036 12.0712 167.062 12.4557 167.064 12.8402C167.064 16.4238 167.064 20.0094 167.064 23.5929C167.064 23.6563 167.054 23.7198 167.048 23.7971H165.082C165.078 23.7218 165.068 23.6445 165.068 23.5672C165.068 18.1125 165.068 12.6579 165.062 7.20523C165.062 7.00702 165.102 6.93963 165.324 6.95351C165.809 6.98126 166.297 6.97729 166.783 6.96342C166.999 6.95747 167.068 7.01892 167.064 7.23694C167.054 7.95049 167.064 8.66403 167.064 9.37757C167.064 9.41523 167.068 9.45487 167.072 9.53019C167.294 9.34982 167.49 9.18729 167.688 9.02873C168.071 8.72151 168.444 8.40041 168.844 8.115C169.53 7.62741 170.275 7.2528 171.076 6.97729C171.851 6.7117 172.648 6.6225 173.452 6.68989C174.511 6.77909 175.486 7.10414 176.249 7.89301C176.725 8.38456 176.982 8.99305 177.181 9.63127C177.44 10.4677 177.49 11.3319 177.492 12.198C177.494 15.962 177.492 19.7279 177.492 23.4918C177.492 23.589 177.492 23.6861 177.492 23.803L177.488 23.7991Z" fill="white"/>
<path d="M109.697 29.7115V28.1418C109.856 28.1576 110.03 28.1695 110.201 28.1893C111.366 28.332 112.496 28.2528 113.463 27.5174C113.782 27.2756 114.032 26.9248 114.266 26.5898C114.777 25.8545 114.962 24.9863 115.205 24.1439C115.336 23.6881 115.12 23.2897 114.991 22.8814C114.805 22.2867 114.587 21.7001 114.379 21.1114C114.187 20.5643 113.982 20.0193 113.792 19.4722C113.479 18.5704 113.176 17.6626 112.861 16.7608C112.623 16.0789 112.369 15.4011 112.129 14.7192C111.852 13.9304 111.586 13.1356 111.307 12.3467C111.081 11.7085 110.833 11.0762 110.607 10.438C110.389 9.82354 110.189 9.20315 109.973 8.58673C109.802 8.09716 109.618 7.61354 109.443 7.12595C109.424 7.07045 109.418 7.01099 109.41 6.97135C110.024 6.97135 110.617 6.96144 111.208 6.98126C111.299 6.98522 111.435 7.10415 111.469 7.19929C111.768 8.04761 112.042 8.90386 112.337 9.75416C112.648 10.656 112.979 11.5519 113.293 12.4518C113.85 14.0493 114.401 15.6488 114.956 17.2464C115.4 18.5248 115.844 19.8012 116.288 21.0797C116.305 21.1312 116.331 21.1827 116.367 21.266C116.537 20.8121 116.704 20.3879 116.856 19.9618C117.148 19.1432 117.433 18.3226 117.715 17.5001C117.986 16.7033 118.246 15.9025 118.515 15.1057C118.86 14.087 119.207 13.0682 119.56 12.0514C119.76 11.4746 119.98 10.9038 120.184 10.327C120.525 9.36172 120.862 8.39447 121.195 7.42722C121.245 7.28452 121.272 7.13586 121.31 6.98324H123.221C123.08 7.35983 122.945 7.70669 122.822 8.05752C122.438 9.16351 122.063 10.2754 121.675 11.3795C121.354 12.2952 121.017 13.2049 120.692 14.1187C120.25 15.3654 119.812 16.6141 119.372 17.8608C118.908 19.1769 118.448 20.495 117.978 21.811C117.435 23.3372 116.908 24.8694 116.325 26.3797C115.996 27.232 115.548 28.0367 114.843 28.6531C114.062 29.335 113.172 29.773 112.101 29.7591C111.582 29.7532 111.063 29.7651 110.546 29.7591C110.27 29.7552 109.994 29.7294 109.691 29.7115H109.697Z" fill="white"/>
<path d="M183.914 8.5867C183.914 8.76707 183.914 8.90581 183.914 9.04257C183.914 12.8561 183.912 16.6695 183.914 20.485C183.914 20.9567 183.941 21.4265 184.203 21.8467C184.482 22.2927 184.911 22.4849 185.41 22.5265C186.096 22.584 186.764 22.4671 187.418 22.2728C187.448 22.2629 187.483 22.2689 187.541 22.2649C187.541 22.7426 187.551 23.2163 187.531 23.688C187.527 23.7633 187.388 23.8763 187.297 23.8961C186.829 23.9873 186.359 24.0825 185.886 24.1201C185.456 24.1558 185.018 24.1518 184.589 24.1043C184.251 24.0666 183.912 23.9635 183.591 23.8407C182.833 23.5493 182.378 22.9745 182.132 22.2193C181.922 21.5752 181.953 20.9092 181.951 20.2452C181.947 16.4476 181.939 12.6499 181.939 8.85428C181.939 8.63823 181.87 8.57877 181.654 8.58274C180.921 8.59661 180.187 8.58868 179.43 8.58868V6.95546H181.932C181.987 5.28062 181.955 3.62361 181.947 1.96265H183.9C183.906 2.04193 183.914 2.11328 183.914 2.18266C183.914 3.66722 183.92 5.15178 183.908 6.63635C183.908 6.88807 183.985 6.95744 184.231 6.95546C185.228 6.94753 186.227 6.96537 187.226 6.95943C187.404 6.95943 187.458 7.01294 187.458 7.17943C187.456 7.57387 187.458 7.96631 187.469 8.36074C187.473 8.53318 187.408 8.5867 187.236 8.5867C186.237 8.58075 185.24 8.5867 184.241 8.5867C184.144 8.5867 184.046 8.5867 183.914 8.5867Z" fill="white"/>
<path d="M12.814 3.62358C13.9477 3.46502 14.8694 4.65623 14.9308 5.53429C15.022 6.84443 13.8248 7.79979 12.8219 7.776C11.6089 7.74825 10.7289 6.78101 10.7189 5.68691C10.709 4.55317 11.7298 3.4888 12.816 3.62358H12.814Z" fill="white"/>
</g>
<defs>
<clipPath id="clip0_18297_87512">
<rect width="200" height="29.5347" fill="white" transform="translate(0 0.375)"/>
</clipPath>
</defs>
</svg>
